<?xml version='1.0' encoding='UTF-8'?>
<svg xmlns="http://www.w3.org/2000/svg" font-family="ConsolasFallback,Consolas,monospace" width="100%" height="100%" viewBox="0 0 800 500" preserveAspectRatio="xMidYMid meet" font-size="14px">
<style>
@font-face {
  src: local('Consolas'), local('Consolas Bold');
  font-family: 'ConsolasFallback';
  font-display: swap;
}
.key {fill: #ffa657;}
.value {fill: #a5d6ff;}
.section {fill: #58a6ff;}
.cc {fill: #484f58;}
.quote {fill: #8b949e; font-style: italic;}
text, tspan {white-space: pre;}
.icon {fill: #ffffff;}
</style>
<rect width="800" height="500" fill="#0d1117" rx="10"/>
<defs>
  <symbol id="icon-location" viewBox="0 0 24 24">
    <path d="M12 2C8.13 2 5 5.13 5 9c0 5.25 7 13 7 13s7-7.75 7-13c0-3.87-3.13-7-7-7zm0 9.5c-1.38 0-2.5-1.12-2.5-2.5s1.12-2.5 2.5-2.5 2.5 1.12 2.5 2.5-1.12 2.5-2.5 2.5z"/>
  </symbol>
  <symbol id="icon-books" viewBox="0 0 24 24">
    <path d="M19 2H6c-1.206 0-3 .799-3 3v14c0 2.201 1.794 3 3 3h15v-2H6.012C5.55 19.988 5 19.806 5 19s.55-.988 1.012-1H21V4c0-1.103-.897-2-2-2zm0 14H5V5c0-.806.55-.988 1-1h13v12z"/>
  </symbol>
  <symbol id="icon-graduation" viewBox="0 0 24 24">
    <path d="M12 3L1 9l4 2.18v6L12 21l7-3.82v-6l2-1.09V17h2V9L12 3zm6.82 6L12 12.72 5.18 9 12 5.28 18.82 9zM17 15.99l-5 2.73-5-2.73v-3.72L12 15l5-2.73v3.72z"/>
  </symbol>
  <symbol id="icon-email" viewBox="0 0 24 24">
    <path d="M20 4H4c-1.1 0-2 .9-2 2v12c0 1.1.9 2 2 2h16c1.1 0 2-.9 2-2V6c0-1.1-.9-2-2-2zm0 4l-8 5-8-5V6l8 5 8-5v2z"/>
  </symbol>
  <symbol id="icon-linkedin" viewBox="0 0 24 24">
    <path d="M19 3a2 2 0 0 1 2 2v14a2 2 0 0 1-2 2H5a2 2 0 0 1-2-2V5a2 2 0 0 1 2-2h14m-.5 15.5v-5.3a3.26 3.26 0 0 0-3.26-3.26c-.85 0-1.84.52-2.32 1.3v-1.11h-2.79v8.37h2.79v-4.93c0-.77.62-1.4 1.39-1.4a1.4 1.4 0 0 1 1.4 1.4v4.93h2.79M6.88 8.56a1.68 1.68 0 0 0 1.68-1.68c0-.93-.75-1.69-1.68-1.69a1.69 1.69 0 0 0-1.69 1.69c0 .93.76 1.68 1.69 1.68m1.39 9.94v-8.37H5.5v8.37h2.77z"/>
  </symbol>
  <symbol id="icon-discord" viewBox="0 0 24 24">
    <path d="M20.317 4.37a19.791 19.791 0 0 0-4.885-1.515.074.074 0 0 0-.079.037c-.21.375-.444.864-.608 1.25a18.27 18.27 0 0 0-5.487 0 12.64 12.64 0 0 0-.617-1.25.077.077 0 0 0-.079-.037A19.736 19.736 0 0 0 3.677 4.37a.07.07 0 0 0-.032.027C.533 9.046-.32 13.58.099 18.057a.082.082 0 0 0 .031.057 19.9 19.9 0 0 0 5.993 3.03.078.078 0 0 0 .084-.028c.462-.63.874-1.295 1.226-1.994a.076.076 0 0 0-.041-.106 13.107 13.107 0 0 1-1.872-.892.077.077 0 0 1-.008-.128 10.2 10.2 0 0 0 .372-.292.074.074 0 0 1 .077-.01c3.928 1.793 8.18 1.793 12.062 0a.074.074 0 0 1 .078.01c.12.098.246.198.373.292a.077.077 0 0 1-.006.127 12.299 12.299 0 0 1-1.873.892.077.077 0 0 0-.041.107c.36.698.772 1.362 1.225 1.993a.076.076 0 0 0 .084.028 19.839 19.839 0 0 0 6.002-3.03.077.077 0 0 0 .032-.054c.5-5.177-.838-9.674-3.549-13.66a.061.061 0 0 0-.031-.03zM8.02 15.33c-1.183 0-2.157-1.085-2.157-2.419 0-1.333.956-2.419 2.157-2.419 1.21 0 2.176 1.096 2.157 2.42 0 1.333-.956 2.418-2.157 2.418zm7.975 0c-1.183 0-2.157-1.085-2.157-2.419 0-1.333.955-2.419 2.157-2.419 1.21 0 2.176 1.096 2.157 2.42 0 1.333-.946 2.418-2.157 2.418z"/>
  </symbol>
  <symbol id="icon-code" viewBox="0 0 24 24">
    <path d="M8 3a2 2 0 0 0-2 2v4a2 2 0 0 1-2 2H3v2h1a2 2 0 0 1 2 2v4a2 2 0 0 0 2 2h2v-2H8v-5a2 2 0 0 0-2-2 2 2 0 0 0 2-2V5h2V3H8m6 0a2 2 0 0 1 2 2v4a2 2 0 0 0 2 2h1v2h-1a2 2 0 0 0-2 2v4a2 2 0 0 1-2 2h-2v-2h2v-5a2 2 0 0 1 2-2 2 2 0 0 1-2-2V5h-2V3h2z"/>
  </symbol>
  <symbol id="icon-globe" viewBox="0 0 24 24">
    <path d="M12 2C6.48 2 2 6.48 2 12s4.48 10 10 10 10-4.48 10-10S17.52 2 12 2zm-1 17.93c-3.95-.49-7-3.85-7-7.93 0-.62.08-1.21.21-1.79L9 15v1c0 1.1.9 2 2 2v1.93zm6.9-2.54c-.26-.81-1-1.39-1.9-1.39h-1v-3c0-.55-.45-1-1-1H8v-2h2c.55 0 1-.45 1-1V7h2c1.1 0 2-.9 2-2v-.41c2.93 1.19 5 4.06 5 7.41 0 2.08-.8 3.97-2.1 5.39z"/>
  </symbol>
  <symbol id="icon-gaming" viewBox="0 0 24 24">
    <path d="M7.97 16L5 19c-1.5 1.5-4 .5-4-2V9c0-2.5 2-4 4-4h14c2 0 4 1.5 4 4v8c0 2.5-2.5 3.5-4 2l-2.97-3H7.97zM11 11H9v2H7v-2H5V9h2V7h2v2h2v2zm4 2a1 1 0 1 0 0-2 1 1 0 0 0 0 2zm3-2a1 1 0 1 0 0-2 1 1 0 0 0 0 2z"/>
  </symbol>
  <symbol id="icon-framework" viewBox="0 0 24 24">
    <path d="M21 16.5c0 .38-.21.71-.53.88l-7.9 4.44c-.16.12-.36.18-.57.18-.21 0-.41-.06-.57-.18l-7.9-4.44A.991.991 0 0 1 3 16.5v-9c0-.38.21-.71.53-.88l7.9-4.44c.16-.12.36-.18.57-.18.21 0 .41.06.57.18l7.9 4.44c.32.17.53.5.53.88v9zM12 4.15L6.04 7.5 12 10.85l5.96-3.35L12 4.15zM5 15.91l6 3.38v-6.71L5 9.21v6.7zm14 0v-6.7l-6 3.37v6.71l6-3.38z"/>
  </symbol>
  <symbol id="icon-test" viewBox="0 0 24 24">
    <path d="M19.8 18.4L14 10.67V6.5l1.35-1.69c.26-.33.03-.81-.39-.81H9.04c-.42 0-.65.48-.39.81L10 6.5v4.17L4.2 18.4c-.49.66-.02 1.6.8 1.6h14c.82 0 1.29-.94.8-1.6z"/>
  </symbol>
  <symbol id="icon-server" viewBox="0 0 24 24">
    <path d="M4 1h16c1.1 0 2 .9 2 2v4c0 1.1-.9 2-2 2H4c-1.1 0-2-.9-2-2V3c0-1.1.9-2 2-2zm0 8h16c1.1 0 2 .9 2 2v4c0 1.1-.9 2-2 2H4c-1.1 0-2-.9-2-2v-4c0-1.1.9-2 2-2zm0 8h16c1.1 0 2 .9 2 2v4c0 1.1-.9 2-2 2H4c-1.1 0-2-.9-2-2v-4c0-1.1.9-2 2-2zM6 4a1 1 0 1 0 0 2 1 1 0 0 0 0-2zm0 8a1 1 0 1 0 0 2 1 1 0 0 0 0-2zm0 8a1 1 0 1 0 0 2 1 1 0 0 0 0-2z"/>
  </symbol>
</defs>

<!-- ASCII Portrait -->
<text x="5" y="10" fill="#ffffff" font-size="11px">
<tspan x="5" y="10">                                                             </tspan>
<tspan x="5" y="21">                                                             </tspan>
<tspan x="5" y="32">                                                             </tspan>
<tspan x="5" y="43">                                                             </tspan>
<tspan x="5" y="54">                                  %***#%</tspan>
<tspan x="5" y="65">                              #-.........:+%</tspan>
<tspan x="5" y="76">                           +#*##*=...........:+</tspan>
<tspan x="5" y="87">                        %:*@%@@@@@@:............:=</tspan>
<tspan x="5" y="98">                       -.#@@%@@@@@:.  .............:@</tspan>
<tspan x="5" y="109">                     %: ----+#@@*..    ..............=</tspan>
<tspan x="5" y="120">        #****#%@@@@@*.....  .  ..       ........... .:-#</tspan>
<tspan x="5" y="131">    :             .::-=-:.  ....        .  ...     . ..:#</tspan>
<tspan x="5" y="142">    .                   .-==-:. ......    ..       .....:</tspan>
<tspan x="5" y="153">       #-          .....    .-=--. ..               .....=</tspan>
<tspan x="5" y="164">              %*=-.:.::::...   .:---:....          . ....:</tspan>
<tspan x="5" y="175">                  =-:::::::::..    .:--:. ..     .. .....:</tspan>
<tspan x="5" y="186">                 -===-----------:::.    .:-. ....... ....-</tspan>
<tspan x="5" y="197">                +  .-=======+++++====-:..   .:. .........#</tspan>
<tspan x="5" y="208">                 #.  :=+=-:-:..-+*####**++==-:.  .......:</tspan>
<tspan x="5" y="219">                 ++-. :+**+=::-=::-=**##%%####*=:  .:...*</tspan>
<tspan x="5" y="230">                 =-:.:+#%##+:.. :--+*+##%%%#%#*++=- .-+*</tspan>
<tspan x="5" y="241">                 ==--+*%%###*--+******##%%%##*+=*%%*+*+=#</tspan>
<tspan x="5" y="252">                *=-:+*%@@%##+*++++*#%%%%%%%%#*+*##*@###++</tspan>
<tspan x="5" y="263">                +-.+*%@@@@%#*++*#####%%%%%%%*+*%@%*+-+**</tspan>
<tspan x="5" y="274">                = :*%@@@%##=+++*%@@@@@@%%%#+==#@@@@@=+#</tspan>
<tspan x="5" y="285">                = +*#@@%@%%*+:+##%%%@@%%%%+---##%%@%**</tspan>
<tspan x="5" y="296">               + . :++-:-==+*+-=*#*##%%%#+=::=#*+#%#</tspan>
<tspan x="5" y="307">               =.     .:....:.:.=#%#####*==:-==*</tspan>
<tspan x="5" y="318">               =   :.--.. . .:-..+%%*#*=-:..+#*</tspan>
<tspan x="5" y="329">              #-  .+===+===-::: .=%=--=-:..:**%</tspan>
<tspan x="5" y="340">     %*=:.    ..  :====+#@%*=..:.=::-:.   :+##</tspan>
<tspan x="5" y="351">                  ...:--=++=:.. .:. .     -*##</tspan>
<tspan x="5" y="362">                 ..:::-=*+:...... .      :-*##%</tspan>
<tspan x="5" y="373">                ...-====+-: ...          .+#**##%#-#</tspan>
<tspan x="5" y="384">                    ..:::. .            .=##**#%%#: .*</tspan>
<tspan x="5" y="395">                       .               .-*#**#%%+.    .=</tspan>
<tspan x="5" y="406">                                    .-*#%#**##+.         .+</tspan>
<tspan x="5" y="417">                                .::=*#%#####=               :</tspan>
<tspan x="5" y="428">                           :=+++***####**=.                  </tspan>
<tspan x="5" y="439">                                 .:--:.                      </tspan>
</text>

<!-- Text Panel with Icons -->
<g class="icon">
  <!-- Header -->
  <text x="420" y="35" class="section" font-size="16px">patrick@patenaude</text>
  <line x1="420" y1="45" x2="780" y2="45" stroke="#484f58" stroke-width="1"/>

  <!-- Location -->
  <use href="#icon-location" x="420" y="55" width="14" height="14"/>
  <text x="440" y="67" font-size="12px"><tspan class="key">Location</tspan><tspan class="cc">: </tspan><tspan class="value">Sorel-Tracy, QC</tspan></text>

  <!-- Education -->
  <use href="#icon-books" x="420" y="78" width="14" height="14"/>
  <text x="440" y="90" font-size="12px"><tspan class="key">Education</tspan><tspan class="cc">: </tspan><tspan class="value">B.Sc. Computer Science @ ULaval</tspan></text>

  <!-- Background -->
  <use href="#icon-graduation" x="420" y="101" width="14" height="14"/>
  <text x="440" y="113" font-size="12px"><tspan class="key">Background</tspan><tspan class="cc">: </tspan><tspan class="value">B.A. Psychology @ UQO</tspan></text>

  <text x="600" y="138" class="quote" font-size="10px" text-anchor="middle">Humans are harder to debug, that's why.</text>

  <!-- Skills Section -->
  <text x="420" y="165" class="section" font-size="14px">Skills</text>
  <line x1="420" y1="172" x2="780" y2="172" stroke="#484f58" stroke-width="1"/>

  <!-- Languages Human -->
  <use href="#icon-globe" x="420" y="181" width="14" height="14"/>
  <text x="440" y="193" font-size="12px"><tspan class="key">Languages.Human</tspan><tspan class="cc">: </tspan><tspan class="value">French, English</tspan></text>

  <!-- Languages Code -->
  <use href="#icon-code" x="420" y="204" width="14" height="14"/>
  <text x="440" y="216" font-size="12px"><tspan class="key">Languages.Code</tspan><tspan class="cc">: </tspan><tspan class="value">TS, C#, Java, C++</tspan></text>

  <!-- Frameworks -->
  <use href="#icon-framework" x="420" y="227" width="14" height="14"/>
  <text x="440" y="239" font-size="12px"><tspan class="key">Frameworks</tspan><tspan class="cc">: </tspan><tspan class="value">React Native, Expo, .NET</tspan></text>

  <!-- Backend -->
  <use href="#icon-server" x="420" y="250" width="14" height="14"/>
  <text x="440" y="262" font-size="12px"><tspan class="key">Backend</tspan><tspan class="cc">: </tspan><tspan class="value">Supabase, Node, Express</tspan></text>

  <!-- Testing -->
  <use href="#icon-test" x="420" y="273" width="14" height="14"/>
  <text x="440" y="285" font-size="12px"><tspan class="key">Testing</tspan><tspan class="cc">: </tspan><tspan class="value">Jest, Cypress, Maestro</tspan></text>

  <!-- When I'm Not Coding -->
  <text x="420" y="320" class="section" font-size="14px">When I'm Not Coding</text>
  <line x1="420" y1="327" x2="780" y2="327" stroke="#484f58" stroke-width="1"/>

  <use href="#icon-gaming" x="420" y="336" width="14" height="14"/>
  <text x="440" y="348" font-size="12px" class="value">Gaming, Lifting, Snowboarding, Hiking</text>

  <!-- Contact Section -->
  <text x="420" y="383" class="section" font-size="14px">Contact</text>
  <line x1="420" y1="390" x2="780" y2="390" stroke="#484f58" stroke-width="1"/>

  <!-- Email -->
  <use href="#icon-email" x="420" y="399" width="14" height="14"/>
  <text x="440" y="411" font-size="12px"><tspan class="key">Email</tspan><tspan class="cc">: </tspan><tspan class="value">ppatenaude@hotmail.fr</tspan></text>

  <!-- LinkedIn -->
  <use href="#icon-linkedin" x="420" y="422" width="14" height="14"/>
  <text x="440" y="434" font-size="12px"><tspan class="key">LinkedIn</tspan><tspan class="cc">: </tspan><tspan class="value">patrickpatenaude</tspan></text>

  <!-- Discord -->
  <use href="#icon-discord" x="420" y="445" width="14" height="14"/>
  <text x="440" y="457" font-size="12px"><tspan class="key">Discord</tspan><tspan class="cc">: </tspan><tspan class="value">Kamaiko</tspan></text>
</g>
</svg>
