<svg xmlns="http://www.w3.org/2000/svg" viewBox="0 0 675 1125" width="675" height="1125" font-family="Inter, 'Helvetica Neue', Arial, sans-serif">
  <defs>
    <linearGradient id="heroSheen" x1="0" y1="0" x2="0" y2="1">
      <stop offset="0" stop-color="#44464C"/>
      <stop offset="0.55" stop-color="#222226"/>
      <stop offset="1" stop-color="#151518"/>
    </linearGradient>
    <radialGradient id="vig" cx="0.5" cy="0.42" r="0.75">
      <stop offset="0.5" stop-color="#0A0A0A" stop-opacity="0"/>
      <stop offset="1" stop-color="#000000" stop-opacity="0.6"/>
    </radialGradient>
    <radialGradient id="heroClear" cx="0.5" cy="0.5" r="0.5">
      <stop offset="0" stop-color="#0A0A0A" stop-opacity="1"/>
      <stop offset="0.6" stop-color="#0A0A0A" stop-opacity="0.85"/>
      <stop offset="1" stop-color="#0A0A0A" stop-opacity="0"/>
    </radialGradient>
    <radialGradient id="sheenHalo" cx="0.5" cy="0.4" r="0.5">
      <stop offset="0" stop-color="#FFFFFF" stop-opacity="0.045"/>
      <stop offset="1" stop-color="#FFFFFF" stop-opacity="0"/>
    </radialGradient>
  </defs>

  <rect width="675" height="1125" fill="#0A0A0A"/>

  <!-- Écho du maillage (identique au verso ; mat, non verni) -->
  <g fill="none" stroke="#101010" stroke-width="1.1" stroke-linecap="round"><line x1="-72.0" y1="-62.4" x2="0.0" y2="-62.4"/><line x1="-72.0" y1="-62.4" x2="-108.0" y2="0.0"/><line x1="-72.0" y1="-62.4" x2="-36.0" y2="0.0"/><line x1="0.0" y1="-62.4" x2="72.0" y2="-62.4"/><line x1="0.0" y1="-62.4" x2="-36.0" y2="0.0"/><line x1="0.0" y1="-62.4" x2="36.0" y2="0.0"/><line x1="72.0" y1="-62.4" x2="144.0" y2="-62.4"/><line x1="72.0" y1="-62.4" x2="36.0" y2="0.0"/><line x1="72.0" y1="-62.4" x2="108.0" y2="0.0"/><line x1="144.0" y1="-62.4" x2="216.0" y2="-62.4"/><line x1="144.0" y1="-62.4" x2="108.0" y2="0.0"/><line x1="144.0" y1="-62.4" x2="180.0" y2="0.0"/><line x1="216.0" y1="-62.4" x2="288.0" y2="-62.4"/><line x1="216.0" y1="-62.4" x2="180.0" y2="0.0"/><line x1="216.0" y1="-62.4" x2="252.0" y2="0.0"/><line x1="288.0" y1="-62.4" x2="360.0" y2="-62.4"/><line x1="288.0" y1="-62.4" x2="252.0" y2="0.0"/><line x1="288.0" y1="-62.4" x2="324.0" y2="0.0"/><line x1="360.0" y1="-62.4" x2="432.0" y2="-62.4"/><line x1="360.0" y1="-62.4" x2="324.0" y2="0.0"/><line x1="360.0" y1="-62.4" x2="396.0" y2="0.0"/><line x1="432.0" y1="-62.4" x2="504.0" y2="-62.4"/><line x1="432.0" y1="-62.4" x2="396.0" y2="0.0"/><line x1="432.0" y1="-62.4" x2="468.0" y2="0.0"/><line x1="504.0" y1="-62.4" x2="576.0" y2="-62.4"/><line x1="504.0" y1="-62.4" x2="468.0" y2="0.0"/><line x1="504.0" y1="-62.4" x2="540.0" y2="0.0"/><line x1="576.0" y1="-62.4" x2="648.0" y2="-62.4"/><line x1="576.0" y1="-62.4" x2="540.0" y2="0.0"/><line x1="576.0" y1="-62.4" x2="612.0" y2="0.0"/><line x1="648.0" y1="-62.4" x2="720.0" y2="-62.4"/><line x1="648.0" y1="-62.4" x2="612.0" y2="0.0"/><line x1="648.0" y1="-62.4" x2="684.0" y2="0.0"/><line x1="720.0" y1="-62.4" x2="792.0" y2="-62.4"/><line x1="720.0" y1="-62.4" x2="684.0" y2="0.0"/><line x1="720.0" y1="-62.4" x2="756.0" y2="0.0"/><line x1="-36.0" y1="0.0" x2="36.0" y2="0.0"/><line x1="-36.0" y1="0.0" x2="-72.0" y2="62.4"/><line x1="-36.0" y1="0.0" x2="0.0" y2="62.4"/><line x1="36.0" y1="0.0" x2="108.0" y2="0.0"/><line x1="36.0" y1="0.0" x2="0.0" y2="62.4"/><line x1="36.0" y1="0.0" x2="72.0" y2="62.4"/><line x1="108.0" y1="0.0" x2="180.0" y2="0.0"/><line x1="108.0" y1="0.0" x2="72.0" y2="62.4"/><line x1="108.0" y1="0.0" x2="144.0" y2="62.4"/><line x1="180.0" y1="0.0" x2="252.0" y2="0.0"/><line x1="180.0" y1="0.0" x2="144.0" y2="62.4"/><line x1="180.0" y1="0.0" x2="216.0" y2="62.4"/><line x1="252.0" y1="0.0" x2="324.0" y2="0.0"/><line x1="252.0" y1="0.0" x2="216.0" y2="62.4"/><line x1="252.0" y1="0.0" x2="288.0" y2="62.4"/><line x1="324.0" y1="0.0" x2="396.0" y2="0.0"/><line x1="324.0" y1="0.0" x2="288.0" y2="62.4"/><line x1="324.0" y1="0.0" x2="360.0" y2="62.4"/><line x1="396.0" y1="0.0" x2="468.0" y2="0.0"/><line x1="396.0" y1="0.0" x2="360.0" y2="62.4"/><line x1="396.0" y1="0.0" x2="432.0" y2="62.4"/><line x1="468.0" y1="0.0" x2="540.0" y2="0.0"/><line x1="468.0" y1="0.0" x2="432.0" y2="62.4"/><line x1="468.0" y1="0.0" x2="504.0" y2="62.4"/><line x1="540.0" y1="0.0" x2="612.0" y2="0.0"/><line x1="540.0" y1="0.0" x2="504.0" y2="62.4"/><line x1="540.0" y1="0.0" x2="576.0" y2="62.4"/><line x1="612.0" y1="0.0" x2="684.0" y2="0.0"/><line x1="612.0" y1="0.0" x2="576.0" y2="62.4"/><line x1="612.0" y1="0.0" x2="648.0" y2="62.4"/><line x1="684.0" y1="0.0" x2="756.0" y2="0.0"/><line x1="684.0" y1="0.0" x2="648.0" y2="62.4"/><line x1="684.0" y1="0.0" x2="720.0" y2="62.4"/><line x1="756.0" y1="0.0" x2="828.0" y2="0.0"/><line x1="756.0" y1="0.0" x2="720.0" y2="62.4"/><line x1="756.0" y1="0.0" x2="792.0" y2="62.4"/><line x1="-72.0" y1="62.4" x2="0.0" y2="62.4"/><line x1="-72.0" y1="62.4" x2="-108.0" y2="124.7"/><line x1="-72.0" y1="62.4" x2="-36.0" y2="124.7"/><line x1="0.0" y1="62.4" x2="72.0" y2="62.4"/><line x1="0.0" y1="62.4" x2="-36.0" y2="124.7"/><line x1="0.0" y1="62.4" x2="36.0" y2="124.7"/><line x1="72.0" y1="62.4" x2="144.0" y2="62.4"/><line x1="72.0" y1="62.4" x2="36.0" y2="124.7"/><line x1="72.0" y1="62.4" x2="108.0" y2="124.7"/><line x1="144.0" y1="62.4" x2="216.0" y2="62.4"/><line x1="144.0" y1="62.4" x2="108.0" y2="124.7"/><line x1="144.0" y1="62.4" x2="180.0" y2="124.7"/><line x1="216.0" y1="62.4" x2="288.0" y2="62.4"/><line x1="216.0" y1="62.4" x2="180.0" y2="124.7"/><line x1="216.0" y1="62.4" x2="252.0" y2="124.7"/><line x1="288.0" y1="62.4" x2="360.0" y2="62.4"/><line x1="288.0" y1="62.4" x2="252.0" y2="124.7"/><line x1="288.0" y1="62.4" x2="324.0" y2="124.7"/><line x1="360.0" y1="62.4" x2="432.0" y2="62.4"/><line x1="360.0" y1="62.4" x2="324.0" y2="124.7"/><line x1="360.0" y1="62.4" x2="396.0" y2="124.7"/><line x1="432.0" y1="62.4" x2="504.0" y2="62.4"/><line x1="432.0" y1="62.4" x2="396.0" y2="124.7"/><line x1="432.0" y1="62.4" x2="468.0" y2="124.7"/><line x1="504.0" y1="62.4" x2="576.0" y2="62.4"/><line x1="504.0" y1="62.4" x2="468.0" y2="124.7"/><line x1="504.0" y1="62.4" x2="540.0" y2="124.7"/><line x1="576.0" y1="62.4" x2="648.0" y2="62.4"/><line x1="576.0" y1="62.4" x2="540.0" y2="124.7"/><line x1="576.0" y1="62.4" x2="612.0" y2="124.7"/><line x1="648.0" y1="62.4" x2="720.0" y2="62.4"/><line x1="648.0" y1="62.4" x2="612.0" y2="124.7"/><line x1="648.0" y1="62.4" x2="684.0" y2="124.7"/><line x1="720.0" y1="62.4" x2="792.0" y2="62.4"/><line x1="720.0" y1="62.4" x2="684.0" y2="124.7"/><line x1="720.0" y1="62.4" x2="756.0" y2="124.7"/><line x1="-36.0" y1="124.7" x2="36.0" y2="124.7"/><line x1="-36.0" y1="124.7" x2="-72.0" y2="187.1"/><line x1="-36.0" y1="124.7" x2="0.0" y2="187.1"/><line x1="36.0" y1="124.7" x2="108.0" y2="124.7"/><line x1="36.0" y1="124.7" x2="0.0" y2="187.1"/><line x1="36.0" y1="124.7" x2="72.0" y2="187.1"/><line x1="108.0" y1="124.7" x2="180.0" y2="124.7"/><line x1="108.0" y1="124.7" x2="72.0" y2="187.1"/><line x1="108.0" y1="124.7" x2="144.0" y2="187.1"/><line x1="180.0" y1="124.7" x2="252.0" y2="124.7"/><line x1="180.0" y1="124.7" x2="144.0" y2="187.1"/><line x1="180.0" y1="124.7" x2="216.0" y2="187.1"/><line x1="252.0" y1="124.7" x2="324.0" y2="124.7"/><line x1="252.0" y1="124.7" x2="216.0" y2="187.1"/><line x1="252.0" y1="124.7" x2="288.0" y2="187.1"/><line x1="324.0" y1="124.7" x2="396.0" y2="124.7"/><line x1="324.0" y1="124.7" x2="288.0" y2="187.1"/><line x1="324.0" y1="124.7" x2="360.0" y2="187.1"/><line x1="396.0" y1="124.7" x2="468.0" y2="124.7"/><line x1="396.0" y1="124.7" x2="360.0" y2="187.1"/><line x1="396.0" y1="124.7" x2="432.0" y2="187.1"/><line x1="468.0" y1="124.7" x2="540.0" y2="124.7"/><line x1="468.0" y1="124.7" x2="432.0" y2="187.1"/><line x1="468.0" y1="124.7" x2="504.0" y2="187.1"/><line x1="540.0" y1="124.7" x2="612.0" y2="124.7"/><line x1="540.0" y1="124.7" x2="504.0" y2="187.1"/><line x1="540.0" y1="124.7" x2="576.0" y2="187.1"/><line x1="612.0" y1="124.7" x2="684.0" y2="124.7"/><line x1="612.0" y1="124.7" x2="576.0" y2="187.1"/><line x1="612.0" y1="124.7" x2="648.0" y2="187.1"/><line x1="684.0" y1="124.7" x2="756.0" y2="124.7"/><line x1="684.0" y1="124.7" x2="648.0" y2="187.1"/><line x1="684.0" y1="124.7" x2="720.0" y2="187.1"/><line x1="756.0" y1="124.7" x2="828.0" y2="124.7"/><line x1="756.0" y1="124.7" x2="720.0" y2="187.1"/><line x1="756.0" y1="124.7" x2="792.0" y2="187.1"/><line x1="-72.0" y1="187.1" x2="0.0" y2="187.1"/><line x1="-72.0" y1="187.1" x2="-108.0" y2="249.4"/><line x1="-72.0" y1="187.1" x2="-36.0" y2="249.4"/><line x1="0.0" y1="187.1" x2="72.0" y2="187.1"/><line x1="0.0" y1="187.1" x2="-36.0" y2="249.4"/><line x1="0.0" y1="187.1" x2="36.0" y2="249.4"/><line x1="72.0" y1="187.1" x2="144.0" y2="187.1"/><line x1="72.0" y1="187.1" x2="36.0" y2="249.4"/><line x1="72.0" y1="187.1" x2="108.0" y2="249.4"/><line x1="144.0" y1="187.1" x2="216.0" y2="187.1"/><line x1="144.0" y1="187.1" x2="108.0" y2="249.4"/><line x1="144.0" y1="187.1" x2="180.0" y2="249.4"/><line x1="216.0" y1="187.1" x2="288.0" y2="187.1"/><line x1="216.0" y1="187.1" x2="180.0" y2="249.4"/><line x1="216.0" y1="187.1" x2="252.0" y2="249.4"/><line x1="288.0" y1="187.1" x2="360.0" y2="187.1"/><line x1="288.0" y1="187.1" x2="252.0" y2="249.4"/><line x1="288.0" y1="187.1" x2="324.0" y2="249.4"/><line x1="360.0" y1="187.1" x2="432.0" y2="187.1"/><line x1="360.0" y1="187.1" x2="324.0" y2="249.4"/><line x1="360.0" y1="187.1" x2="396.0" y2="249.4"/><line x1="432.0" y1="187.1" x2="504.0" y2="187.1"/><line x1="432.0" y1="187.1" x2="396.0" y2="249.4"/><line x1="432.0" y1="187.1" x2="468.0" y2="249.4"/><line x1="504.0" y1="187.1" x2="576.0" y2="187.1"/><line x1="504.0" y1="187.1" x2="468.0" y2="249.4"/><line x1="504.0" y1="187.1" x2="540.0" y2="249.4"/><line x1="576.0" y1="187.1" x2="648.0" y2="187.1"/><line x1="576.0" y1="187.1" x2="540.0" y2="249.4"/><line x1="576.0" y1="187.1" x2="612.0" y2="249.4"/><line x1="648.0" y1="187.1" x2="720.0" y2="187.1"/><line x1="648.0" y1="187.1" x2="612.0" y2="249.4"/><line x1="648.0" y1="187.1" x2="684.0" y2="249.4"/><line x1="720.0" y1="187.1" x2="792.0" y2="187.1"/><line x1="720.0" y1="187.1" x2="684.0" y2="249.4"/><line x1="720.0" y1="187.1" x2="756.0" y2="249.4"/><line x1="-36.0" y1="249.4" x2="36.0" y2="249.4"/><line x1="-36.0" y1="249.4" x2="-72.0" y2="311.8"/><line x1="-36.0" y1="249.4" x2="0.0" y2="311.8"/><line x1="36.0" y1="249.4" x2="108.0" y2="249.4"/><line x1="36.0" y1="249.4" x2="0.0" y2="311.8"/><line x1="36.0" y1="249.4" x2="72.0" y2="311.8"/><line x1="108.0" y1="249.4" x2="180.0" y2="249.4"/><line x1="108.0" y1="249.4" x2="72.0" y2="311.8"/><line x1="108.0" y1="249.4" x2="144.0" y2="311.8"/><line x1="180.0" y1="249.4" x2="252.0" y2="249.4"/><line x1="180.0" y1="249.4" x2="144.0" y2="311.8"/><line x1="180.0" y1="249.4" x2="216.0" y2="311.8"/><line x1="252.0" y1="249.4" x2="324.0" y2="249.4"/><line x1="252.0" y1="249.4" x2="216.0" y2="311.8"/><line x1="252.0" y1="249.4" x2="288.0" y2="311.8"/><line x1="324.0" y1="249.4" x2="396.0" y2="249.4"/><line x1="324.0" y1="249.4" x2="288.0" y2="311.8"/><line x1="324.0" y1="249.4" x2="360.0" y2="311.8"/><line x1="396.0" y1="249.4" x2="468.0" y2="249.4"/><line x1="396.0" y1="249.4" x2="360.0" y2="311.8"/><line x1="396.0" y1="249.4" x2="432.0" y2="311.8"/><line x1="468.0" y1="249.4" x2="540.0" y2="249.4"/><line x1="468.0" y1="249.4" x2="432.0" y2="311.8"/><line x1="468.0" y1="249.4" x2="504.0" y2="311.8"/><line x1="540.0" y1="249.4" x2="612.0" y2="249.4"/><line x1="540.0" y1="249.4" x2="504.0" y2="311.8"/><line x1="540.0" y1="249.4" x2="576.0" y2="311.8"/><line x1="612.0" y1="249.4" x2="684.0" y2="249.4"/><line x1="612.0" y1="249.4" x2="576.0" y2="311.8"/><line x1="612.0" y1="249.4" x2="648.0" y2="311.8"/><line x1="684.0" y1="249.4" x2="756.0" y2="249.4"/><line x1="684.0" y1="249.4" x2="648.0" y2="311.8"/><line x1="684.0" y1="249.4" x2="720.0" y2="311.8"/><line x1="756.0" y1="249.4" x2="828.0" y2="249.4"/><line x1="756.0" y1="249.4" x2="720.0" y2="311.8"/><line x1="756.0" y1="249.4" x2="792.0" y2="311.8"/><line x1="-72.0" y1="311.8" x2="0.0" y2="311.8"/><line x1="-72.0" y1="311.8" x2="-108.0" y2="374.1"/><line x1="-72.0" y1="311.8" x2="-36.0" y2="374.1"/><line x1="0.0" y1="311.8" x2="72.0" y2="311.8"/><line x1="0.0" y1="311.8" x2="-36.0" y2="374.1"/><line x1="0.0" y1="311.8" x2="36.0" y2="374.1"/><line x1="72.0" y1="311.8" x2="144.0" y2="311.8"/><line x1="72.0" y1="311.8" x2="36.0" y2="374.1"/><line x1="72.0" y1="311.8" x2="108.0" y2="374.1"/><line x1="144.0" y1="311.8" x2="216.0" y2="311.8"/><line x1="144.0" y1="311.8" x2="108.0" y2="374.1"/><line x1="144.0" y1="311.8" x2="180.0" y2="374.1"/><line x1="216.0" y1="311.8" x2="288.0" y2="311.8"/><line x1="216.0" y1="311.8" x2="180.0" y2="374.1"/><line x1="216.0" y1="311.8" x2="252.0" y2="374.1"/><line x1="288.0" y1="311.8" x2="360.0" y2="311.8"/><line x1="288.0" y1="311.8" x2="252.0" y2="374.1"/><line x1="288.0" y1="311.8" x2="324.0" y2="374.1"/><line x1="360.0" y1="311.8" x2="432.0" y2="311.8"/><line x1="360.0" y1="311.8" x2="324.0" y2="374.1"/><line x1="360.0" y1="311.8" x2="396.0" y2="374.1"/><line x1="432.0" y1="311.8" x2="504.0" y2="311.8"/><line x1="432.0" y1="311.8" x2="396.0" y2="374.1"/><line x1="432.0" y1="311.8" x2="468.0" y2="374.1"/><line x1="504.0" y1="311.8" x2="576.0" y2="311.8"/><line x1="504.0" y1="311.8" x2="468.0" y2="374.1"/><line x1="504.0" y1="311.8" x2="540.0" y2="374.1"/><line x1="576.0" y1="311.8" x2="648.0" y2="311.8"/><line x1="576.0" y1="311.8" x2="540.0" y2="374.1"/><line x1="576.0" y1="311.8" x2="612.0" y2="374.1"/><line x1="648.0" y1="311.8" x2="720.0" y2="311.8"/><line x1="648.0" y1="311.8" x2="612.0" y2="374.1"/><line x1="648.0" y1="311.8" x2="684.0" y2="374.1"/><line x1="720.0" y1="311.8" x2="792.0" y2="311.8"/><line x1="720.0" y1="311.8" x2="684.0" y2="374.1"/><line x1="720.0" y1="311.8" x2="756.0" y2="374.1"/><line x1="-36.0" y1="374.1" x2="36.0" y2="374.1"/><line x1="-36.0" y1="374.1" x2="-72.0" y2="436.5"/><line x1="-36.0" y1="374.1" x2="0.0" y2="436.5"/><line x1="36.0" y1="374.1" x2="108.0" y2="374.1"/><line x1="36.0" y1="374.1" x2="0.0" y2="436.5"/><line x1="36.0" y1="374.1" x2="72.0" y2="436.5"/><line x1="108.0" y1="374.1" x2="180.0" y2="374.1"/><line x1="108.0" y1="374.1" x2="72.0" y2="436.5"/><line x1="108.0" y1="374.1" x2="144.0" y2="436.5"/><line x1="180.0" y1="374.1" x2="252.0" y2="374.1"/><line x1="180.0" y1="374.1" x2="144.0" y2="436.5"/><line x1="180.0" y1="374.1" x2="216.0" y2="436.5"/><line x1="252.0" y1="374.1" x2="324.0" y2="374.1"/><line x1="252.0" y1="374.1" x2="216.0" y2="436.5"/><line x1="252.0" y1="374.1" x2="288.0" y2="436.5"/><line x1="324.0" y1="374.1" x2="396.0" y2="374.1"/><line x1="324.0" y1="374.1" x2="288.0" y2="436.5"/><line x1="324.0" y1="374.1" x2="360.0" y2="436.5"/><line x1="396.0" y1="374.1" x2="468.0" y2="374.1"/><line x1="396.0" y1="374.1" x2="360.0" y2="436.5"/><line x1="396.0" y1="374.1" x2="432.0" y2="436.5"/><line x1="468.0" y1="374.1" x2="540.0" y2="374.1"/><line x1="468.0" y1="374.1" x2="432.0" y2="436.5"/><line x1="468.0" y1="374.1" x2="504.0" y2="436.5"/><line x1="540.0" y1="374.1" x2="612.0" y2="374.1"/><line x1="540.0" y1="374.1" x2="504.0" y2="436.5"/><line x1="540.0" y1="374.1" x2="576.0" y2="436.5"/><line x1="612.0" y1="374.1" x2="684.0" y2="374.1"/><line x1="612.0" y1="374.1" x2="576.0" y2="436.5"/><line x1="612.0" y1="374.1" x2="648.0" y2="436.5"/><line x1="684.0" y1="374.1" x2="756.0" y2="374.1"/><line x1="684.0" y1="374.1" x2="648.0" y2="436.5"/><line x1="684.0" y1="374.1" x2="720.0" y2="436.5"/><line x1="756.0" y1="374.1" x2="828.0" y2="374.1"/><line x1="756.0" y1="374.1" x2="720.0" y2="436.5"/><line x1="756.0" y1="374.1" x2="792.0" y2="436.5"/><line x1="-72.0" y1="436.5" x2="0.0" y2="436.5"/><line x1="-72.0" y1="436.5" x2="-108.0" y2="498.8"/><line x1="-72.0" y1="436.5" x2="-36.0" y2="498.8"/><line x1="0.0" y1="436.5" x2="72.0" y2="436.5"/><line x1="0.0" y1="436.5" x2="-36.0" y2="498.8"/><line x1="0.0" y1="436.5" x2="36.0" y2="498.8"/><line x1="72.0" y1="436.5" x2="144.0" y2="436.5"/><line x1="72.0" y1="436.5" x2="36.0" y2="498.8"/><line x1="72.0" y1="436.5" x2="108.0" y2="498.8"/><line x1="144.0" y1="436.5" x2="216.0" y2="436.5"/><line x1="144.0" y1="436.5" x2="108.0" y2="498.8"/><line x1="144.0" y1="436.5" x2="180.0" y2="498.8"/><line x1="216.0" y1="436.5" x2="288.0" y2="436.5"/><line x1="216.0" y1="436.5" x2="180.0" y2="498.8"/><line x1="216.0" y1="436.5" x2="252.0" y2="498.8"/><line x1="288.0" y1="436.5" x2="360.0" y2="436.5"/><line x1="288.0" y1="436.5" x2="252.0" y2="498.8"/><line x1="288.0" y1="436.5" x2="324.0" y2="498.8"/><line x1="360.0" y1="436.5" x2="432.0" y2="436.5"/><line x1="360.0" y1="436.5" x2="324.0" y2="498.8"/><line x1="360.0" y1="436.5" x2="396.0" y2="498.8"/><line x1="432.0" y1="436.5" x2="504.0" y2="436.5"/><line x1="432.0" y1="436.5" x2="396.0" y2="498.8"/><line x1="432.0" y1="436.5" x2="468.0" y2="498.8"/><line x1="504.0" y1="436.5" x2="576.0" y2="436.5"/><line x1="504.0" y1="436.5" x2="468.0" y2="498.8"/><line x1="504.0" y1="436.5" x2="540.0" y2="498.8"/><line x1="576.0" y1="436.5" x2="648.0" y2="436.5"/><line x1="576.0" y1="436.5" x2="540.0" y2="498.8"/><line x1="576.0" y1="436.5" x2="612.0" y2="498.8"/><line x1="648.0" y1="436.5" x2="720.0" y2="436.5"/><line x1="648.0" y1="436.5" x2="612.0" y2="498.8"/><line x1="648.0" y1="436.5" x2="684.0" y2="498.8"/><line x1="720.0" y1="436.5" x2="792.0" y2="436.5"/><line x1="720.0" y1="436.5" x2="684.0" y2="498.8"/><line x1="720.0" y1="436.5" x2="756.0" y2="498.8"/><line x1="-36.0" y1="498.8" x2="36.0" y2="498.8"/><line x1="-36.0" y1="498.8" x2="-72.0" y2="561.2"/><line x1="-36.0" y1="498.8" x2="0.0" y2="561.2"/><line x1="36.0" y1="498.8" x2="108.0" y2="498.8"/><line x1="36.0" y1="498.8" x2="0.0" y2="561.2"/><line x1="36.0" y1="498.8" x2="72.0" y2="561.2"/><line x1="108.0" y1="498.8" x2="180.0" y2="498.8"/><line x1="108.0" y1="498.8" x2="72.0" y2="561.2"/><line x1="108.0" y1="498.8" x2="144.0" y2="561.2"/><line x1="180.0" y1="498.8" x2="252.0" y2="498.8"/><line x1="180.0" y1="498.8" x2="144.0" y2="561.2"/><line x1="180.0" y1="498.8" x2="216.0" y2="561.2"/><line x1="252.0" y1="498.8" x2="324.0" y2="498.8"/><line x1="252.0" y1="498.8" x2="216.0" y2="561.2"/><line x1="252.0" y1="498.8" x2="288.0" y2="561.2"/><line x1="324.0" y1="498.8" x2="396.0" y2="498.8"/><line x1="324.0" y1="498.8" x2="288.0" y2="561.2"/><line x1="324.0" y1="498.8" x2="360.0" y2="561.2"/><line x1="396.0" y1="498.8" x2="468.0" y2="498.8"/><line x1="396.0" y1="498.8" x2="360.0" y2="561.2"/><line x1="396.0" y1="498.8" x2="432.0" y2="561.2"/><line x1="468.0" y1="498.8" x2="540.0" y2="498.8"/><line x1="468.0" y1="498.8" x2="432.0" y2="561.2"/><line x1="468.0" y1="498.8" x2="504.0" y2="561.2"/><line x1="540.0" y1="498.8" x2="612.0" y2="498.8"/><line x1="540.0" y1="498.8" x2="504.0" y2="561.2"/><line x1="540.0" y1="498.8" x2="576.0" y2="561.2"/><line x1="612.0" y1="498.8" x2="684.0" y2="498.8"/><line x1="612.0" y1="498.8" x2="576.0" y2="561.2"/><line x1="612.0" y1="498.8" x2="648.0" y2="561.2"/><line x1="684.0" y1="498.8" x2="756.0" y2="498.8"/><line x1="684.0" y1="498.8" x2="648.0" y2="561.2"/><line x1="684.0" y1="498.8" x2="720.0" y2="561.2"/><line x1="756.0" y1="498.8" x2="828.0" y2="498.8"/><line x1="756.0" y1="498.8" x2="720.0" y2="561.2"/><line x1="756.0" y1="498.8" x2="792.0" y2="561.2"/><line x1="-72.0" y1="561.2" x2="0.0" y2="561.2"/><line x1="-72.0" y1="561.2" x2="-108.0" y2="623.5"/><line x1="-72.0" y1="561.2" x2="-36.0" y2="623.5"/><line x1="0.0" y1="561.2" x2="72.0" y2="561.2"/><line x1="0.0" y1="561.2" x2="-36.0" y2="623.5"/><line x1="0.0" y1="561.2" x2="36.0" y2="623.5"/><line x1="72.0" y1="561.2" x2="144.0" y2="561.2"/><line x1="72.0" y1="561.2" x2="36.0" y2="623.5"/><line x1="72.0" y1="561.2" x2="108.0" y2="623.5"/><line x1="144.0" y1="561.2" x2="216.0" y2="561.2"/><line x1="144.0" y1="561.2" x2="108.0" y2="623.5"/><line x1="144.0" y1="561.2" x2="180.0" y2="623.5"/><line x1="216.0" y1="561.2" x2="288.0" y2="561.2"/><line x1="216.0" y1="561.2" x2="180.0" y2="623.5"/><line x1="216.0" y1="561.2" x2="252.0" y2="623.5"/><line x1="288.0" y1="561.2" x2="360.0" y2="561.2"/><line x1="288.0" y1="561.2" x2="252.0" y2="623.5"/><line x1="288.0" y1="561.2" x2="324.0" y2="623.5"/><line x1="360.0" y1="561.2" x2="432.0" y2="561.2"/><line x1="360.0" y1="561.2" x2="324.0" y2="623.5"/><line x1="360.0" y1="561.2" x2="396.0" y2="623.5"/><line x1="432.0" y1="561.2" x2="504.0" y2="561.2"/><line x1="432.0" y1="561.2" x2="396.0" y2="623.5"/><line x1="432.0" y1="561.2" x2="468.0" y2="623.5"/><line x1="504.0" y1="561.2" x2="576.0" y2="561.2"/><line x1="504.0" y1="561.2" x2="468.0" y2="623.5"/><line x1="504.0" y1="561.2" x2="540.0" y2="623.5"/><line x1="576.0" y1="561.2" x2="648.0" y2="561.2"/><line x1="576.0" y1="561.2" x2="540.0" y2="623.5"/><line x1="576.0" y1="561.2" x2="612.0" y2="623.5"/><line x1="648.0" y1="561.2" x2="720.0" y2="561.2"/><line x1="648.0" y1="561.2" x2="612.0" y2="623.5"/><line x1="648.0" y1="561.2" x2="684.0" y2="623.5"/><line x1="720.0" y1="561.2" x2="792.0" y2="561.2"/><line x1="720.0" y1="561.2" x2="684.0" y2="623.5"/><line x1="720.0" y1="561.2" x2="756.0" y2="623.5"/><line x1="-36.0" y1="623.5" x2="36.0" y2="623.5"/><line x1="-36.0" y1="623.5" x2="-72.0" y2="685.9"/><line x1="-36.0" y1="623.5" x2="0.0" y2="685.9"/><line x1="36.0" y1="623.5" x2="108.0" y2="623.5"/><line x1="36.0" y1="623.5" x2="0.0" y2="685.9"/><line x1="36.0" y1="623.5" x2="72.0" y2="685.9"/><line x1="108.0" y1="623.5" x2="180.0" y2="623.5"/><line x1="108.0" y1="623.5" x2="72.0" y2="685.9"/><line x1="108.0" y1="623.5" x2="144.0" y2="685.9"/><line x1="180.0" y1="623.5" x2="252.0" y2="623.5"/><line x1="180.0" y1="623.5" x2="144.0" y2="685.9"/><line x1="180.0" y1="623.5" x2="216.0" y2="685.9"/><line x1="252.0" y1="623.5" x2="324.0" y2="623.5"/><line x1="252.0" y1="623.5" x2="216.0" y2="685.9"/><line x1="252.0" y1="623.5" x2="288.0" y2="685.9"/><line x1="324.0" y1="623.5" x2="396.0" y2="623.5"/><line x1="324.0" y1="623.5" x2="288.0" y2="685.9"/><line x1="324.0" y1="623.5" x2="360.0" y2="685.9"/><line x1="396.0" y1="623.5" x2="468.0" y2="623.5"/><line x1="396.0" y1="623.5" x2="360.0" y2="685.9"/><line x1="396.0" y1="623.5" x2="432.0" y2="685.9"/><line x1="468.0" y1="623.5" x2="540.0" y2="623.5"/><line x1="468.0" y1="623.5" x2="432.0" y2="685.9"/><line x1="468.0" y1="623.5" x2="504.0" y2="685.9"/><line x1="540.0" y1="623.5" x2="612.0" y2="623.5"/><line x1="540.0" y1="623.5" x2="504.0" y2="685.9"/><line x1="540.0" y1="623.5" x2="576.0" y2="685.9"/><line x1="612.0" y1="623.5" x2="684.0" y2="623.5"/><line x1="612.0" y1="623.5" x2="576.0" y2="685.9"/><line x1="612.0" y1="623.5" x2="648.0" y2="685.9"/><line x1="684.0" y1="623.5" x2="756.0" y2="623.5"/><line x1="684.0" y1="623.5" x2="648.0" y2="685.9"/><line x1="684.0" y1="623.5" x2="720.0" y2="685.9"/><line x1="756.0" y1="623.5" x2="828.0" y2="623.5"/><line x1="756.0" y1="623.5" x2="720.0" y2="685.9"/><line x1="756.0" y1="623.5" x2="792.0" y2="685.9"/><line x1="-72.0" y1="685.9" x2="0.0" y2="685.9"/><line x1="-72.0" y1="685.9" x2="-108.0" y2="748.2"/><line x1="-72.0" y1="685.9" x2="-36.0" y2="748.2"/><line x1="0.0" y1="685.9" x2="72.0" y2="685.9"/><line x1="0.0" y1="685.9" x2="-36.0" y2="748.2"/><line x1="0.0" y1="685.9" x2="36.0" y2="748.2"/><line x1="72.0" y1="685.9" x2="144.0" y2="685.9"/><line x1="72.0" y1="685.9" x2="36.0" y2="748.2"/><line x1="72.0" y1="685.9" x2="108.0" y2="748.2"/><line x1="144.0" y1="685.9" x2="216.0" y2="685.9"/><line x1="144.0" y1="685.9" x2="108.0" y2="748.2"/><line x1="144.0" y1="685.9" x2="180.0" y2="748.2"/><line x1="216.0" y1="685.9" x2="288.0" y2="685.9"/><line x1="216.0" y1="685.9" x2="180.0" y2="748.2"/><line x1="216.0" y1="685.9" x2="252.0" y2="748.2"/><line x1="288.0" y1="685.9" x2="360.0" y2="685.9"/><line x1="288.0" y1="685.9" x2="252.0" y2="748.2"/><line x1="288.0" y1="685.9" x2="324.0" y2="748.2"/><line x1="360.0" y1="685.9" x2="432.0" y2="685.9"/><line x1="360.0" y1="685.9" x2="324.0" y2="748.2"/><line x1="360.0" y1="685.9" x2="396.0" y2="748.2"/><line x1="432.0" y1="685.9" x2="504.0" y2="685.9"/><line x1="432.0" y1="685.9" x2="396.0" y2="748.2"/><line x1="432.0" y1="685.9" x2="468.0" y2="748.2"/><line x1="504.0" y1="685.9" x2="576.0" y2="685.9"/><line x1="504.0" y1="685.9" x2="468.0" y2="748.2"/><line x1="504.0" y1="685.9" x2="540.0" y2="748.2"/><line x1="576.0" y1="685.9" x2="648.0" y2="685.9"/><line x1="576.0" y1="685.9" x2="540.0" y2="748.2"/><line x1="576.0" y1="685.9" x2="612.0" y2="748.2"/><line x1="648.0" y1="685.9" x2="720.0" y2="685.9"/><line x1="648.0" y1="685.9" x2="612.0" y2="748.2"/><line x1="648.0" y1="685.9" x2="684.0" y2="748.2"/><line x1="720.0" y1="685.9" x2="792.0" y2="685.9"/><line x1="720.0" y1="685.9" x2="684.0" y2="748.2"/><line x1="720.0" y1="685.9" x2="756.0" y2="748.2"/><line x1="-36.0" y1="748.2" x2="36.0" y2="748.2"/><line x1="-36.0" y1="748.2" x2="-72.0" y2="810.6"/><line x1="-36.0" y1="748.2" x2="0.0" y2="810.6"/><line x1="36.0" y1="748.2" x2="108.0" y2="748.2"/><line x1="36.0" y1="748.2" x2="0.0" y2="810.6"/><line x1="36.0" y1="748.2" x2="72.0" y2="810.6"/><line x1="108.0" y1="748.2" x2="180.0" y2="748.2"/><line x1="108.0" y1="748.2" x2="72.0" y2="810.6"/><line x1="108.0" y1="748.2" x2="144.0" y2="810.6"/><line x1="180.0" y1="748.2" x2="252.0" y2="748.2"/><line x1="180.0" y1="748.2" x2="144.0" y2="810.6"/><line x1="180.0" y1="748.2" x2="216.0" y2="810.6"/><line x1="252.0" y1="748.2" x2="324.0" y2="748.2"/><line x1="252.0" y1="748.2" x2="216.0" y2="810.6"/><line x1="252.0" y1="748.2" x2="288.0" y2="810.6"/><line x1="324.0" y1="748.2" x2="396.0" y2="748.2"/><line x1="324.0" y1="748.2" x2="288.0" y2="810.6"/><line x1="324.0" y1="748.2" x2="360.0" y2="810.6"/><line x1="396.0" y1="748.2" x2="468.0" y2="748.2"/><line x1="396.0" y1="748.2" x2="360.0" y2="810.6"/><line x1="396.0" y1="748.2" x2="432.0" y2="810.6"/><line x1="468.0" y1="748.2" x2="540.0" y2="748.2"/><line x1="468.0" y1="748.2" x2="432.0" y2="810.6"/><line x1="468.0" y1="748.2" x2="504.0" y2="810.6"/><line x1="540.0" y1="748.2" x2="612.0" y2="748.2"/><line x1="540.0" y1="748.2" x2="504.0" y2="810.6"/><line x1="540.0" y1="748.2" x2="576.0" y2="810.6"/><line x1="612.0" y1="748.2" x2="684.0" y2="748.2"/><line x1="612.0" y1="748.2" x2="576.0" y2="810.6"/><line x1="612.0" y1="748.2" x2="648.0" y2="810.6"/><line x1="684.0" y1="748.2" x2="756.0" y2="748.2"/><line x1="684.0" y1="748.2" x2="648.0" y2="810.6"/><line x1="684.0" y1="748.2" x2="720.0" y2="810.6"/><line x1="756.0" y1="748.2" x2="828.0" y2="748.2"/><line x1="756.0" y1="748.2" x2="720.0" y2="810.6"/><line x1="756.0" y1="748.2" x2="792.0" y2="810.6"/><line x1="-72.0" y1="810.6" x2="0.0" y2="810.6"/><line x1="-72.0" y1="810.6" x2="-108.0" y2="873.0"/><line x1="-72.0" y1="810.6" x2="-36.0" y2="873.0"/><line x1="0.0" y1="810.6" x2="72.0" y2="810.6"/><line x1="0.0" y1="810.6" x2="-36.0" y2="873.0"/><line x1="0.0" y1="810.6" x2="36.0" y2="873.0"/><line x1="72.0" y1="810.6" x2="144.0" y2="810.6"/><line x1="72.0" y1="810.6" x2="36.0" y2="873.0"/><line x1="72.0" y1="810.6" x2="108.0" y2="873.0"/><line x1="144.0" y1="810.6" x2="216.0" y2="810.6"/><line x1="144.0" y1="810.6" x2="108.0" y2="873.0"/><line x1="144.0" y1="810.6" x2="180.0" y2="873.0"/><line x1="216.0" y1="810.6" x2="288.0" y2="810.6"/><line x1="216.0" y1="810.6" x2="180.0" y2="873.0"/><line x1="216.0" y1="810.6" x2="252.0" y2="873.0"/><line x1="288.0" y1="810.6" x2="360.0" y2="810.6"/><line x1="288.0" y1="810.6" x2="252.0" y2="873.0"/><line x1="288.0" y1="810.6" x2="324.0" y2="873.0"/><line x1="360.0" y1="810.6" x2="432.0" y2="810.6"/><line x1="360.0" y1="810.6" x2="324.0" y2="873.0"/><line x1="360.0" y1="810.6" x2="396.0" y2="873.0"/><line x1="432.0" y1="810.6" x2="504.0" y2="810.6"/><line x1="432.0" y1="810.6" x2="396.0" y2="873.0"/><line x1="432.0" y1="810.6" x2="468.0" y2="873.0"/><line x1="504.0" y1="810.6" x2="576.0" y2="810.6"/><line x1="504.0" y1="810.6" x2="468.0" y2="873.0"/><line x1="504.0" y1="810.6" x2="540.0" y2="873.0"/><line x1="576.0" y1="810.6" x2="648.0" y2="810.6"/><line x1="576.0" y1="810.6" x2="540.0" y2="873.0"/><line x1="576.0" y1="810.6" x2="612.0" y2="873.0"/><line x1="648.0" y1="810.6" x2="720.0" y2="810.6"/><line x1="648.0" y1="810.6" x2="612.0" y2="873.0"/><line x1="648.0" y1="810.6" x2="684.0" y2="873.0"/><line x1="720.0" y1="810.6" x2="792.0" y2="810.6"/><line x1="720.0" y1="810.6" x2="684.0" y2="873.0"/><line x1="720.0" y1="810.6" x2="756.0" y2="873.0"/><line x1="-36.0" y1="873.0" x2="36.0" y2="873.0"/><line x1="-36.0" y1="873.0" x2="-72.0" y2="935.3"/><line x1="-36.0" y1="873.0" x2="0.0" y2="935.3"/><line x1="36.0" y1="873.0" x2="108.0" y2="873.0"/><line x1="36.0" y1="873.0" x2="0.0" y2="935.3"/><line x1="36.0" y1="873.0" x2="72.0" y2="935.3"/><line x1="108.0" y1="873.0" x2="180.0" y2="873.0"/><line x1="108.0" y1="873.0" x2="72.0" y2="935.3"/><line x1="108.0" y1="873.0" x2="144.0" y2="935.3"/><line x1="180.0" y1="873.0" x2="252.0" y2="873.0"/><line x1="180.0" y1="873.0" x2="144.0" y2="935.3"/><line x1="180.0" y1="873.0" x2="216.0" y2="935.3"/><line x1="252.0" y1="873.0" x2="324.0" y2="873.0"/><line x1="252.0" y1="873.0" x2="216.0" y2="935.3"/><line x1="252.0" y1="873.0" x2="288.0" y2="935.3"/><line x1="324.0" y1="873.0" x2="396.0" y2="873.0"/><line x1="324.0" y1="873.0" x2="288.0" y2="935.3"/><line x1="324.0" y1="873.0" x2="360.0" y2="935.3"/><line x1="396.0" y1="873.0" x2="468.0" y2="873.0"/><line x1="396.0" y1="873.0" x2="360.0" y2="935.3"/><line x1="396.0" y1="873.0" x2="432.0" y2="935.3"/><line x1="468.0" y1="873.0" x2="540.0" y2="873.0"/><line x1="468.0" y1="873.0" x2="432.0" y2="935.3"/><line x1="468.0" y1="873.0" x2="504.0" y2="935.3"/><line x1="540.0" y1="873.0" x2="612.0" y2="873.0"/><line x1="540.0" y1="873.0" x2="504.0" y2="935.3"/><line x1="540.0" y1="873.0" x2="576.0" y2="935.3"/><line x1="612.0" y1="873.0" x2="684.0" y2="873.0"/><line x1="612.0" y1="873.0" x2="576.0" y2="935.3"/><line x1="612.0" y1="873.0" x2="648.0" y2="935.3"/><line x1="684.0" y1="873.0" x2="756.0" y2="873.0"/><line x1="684.0" y1="873.0" x2="648.0" y2="935.3"/><line x1="684.0" y1="873.0" x2="720.0" y2="935.3"/><line x1="756.0" y1="873.0" x2="828.0" y2="873.0"/><line x1="756.0" y1="873.0" x2="720.0" y2="935.3"/><line x1="756.0" y1="873.0" x2="792.0" y2="935.3"/><line x1="-72.0" y1="935.3" x2="0.0" y2="935.3"/><line x1="-72.0" y1="935.3" x2="-108.0" y2="997.7"/><line x1="-72.0" y1="935.3" x2="-36.0" y2="997.7"/><line x1="0.0" y1="935.3" x2="72.0" y2="935.3"/><line x1="0.0" y1="935.3" x2="-36.0" y2="997.7"/><line x1="0.0" y1="935.3" x2="36.0" y2="997.7"/><line x1="72.0" y1="935.3" x2="144.0" y2="935.3"/><line x1="72.0" y1="935.3" x2="36.0" y2="997.7"/><line x1="72.0" y1="935.3" x2="108.0" y2="997.7"/><line x1="144.0" y1="935.3" x2="216.0" y2="935.3"/><line x1="144.0" y1="935.3" x2="108.0" y2="997.7"/><line x1="144.0" y1="935.3" x2="180.0" y2="997.7"/><line x1="216.0" y1="935.3" x2="288.0" y2="935.3"/><line x1="216.0" y1="935.3" x2="180.0" y2="997.7"/><line x1="216.0" y1="935.3" x2="252.0" y2="997.7"/><line x1="288.0" y1="935.3" x2="360.0" y2="935.3"/><line x1="288.0" y1="935.3" x2="252.0" y2="997.7"/><line x1="288.0" y1="935.3" x2="324.0" y2="997.7"/><line x1="360.0" y1="935.3" x2="432.0" y2="935.3"/><line x1="360.0" y1="935.3" x2="324.0" y2="997.7"/><line x1="360.0" y1="935.3" x2="396.0" y2="997.7"/><line x1="432.0" y1="935.3" x2="504.0" y2="935.3"/><line x1="432.0" y1="935.3" x2="396.0" y2="997.7"/><line x1="432.0" y1="935.3" x2="468.0" y2="997.7"/><line x1="504.0" y1="935.3" x2="576.0" y2="935.3"/><line x1="504.0" y1="935.3" x2="468.0" y2="997.7"/><line x1="504.0" y1="935.3" x2="540.0" y2="997.7"/><line x1="576.0" y1="935.3" x2="648.0" y2="935.3"/><line x1="576.0" y1="935.3" x2="540.0" y2="997.7"/><line x1="576.0" y1="935.3" x2="612.0" y2="997.7"/><line x1="648.0" y1="935.3" x2="720.0" y2="935.3"/><line x1="648.0" y1="935.3" x2="612.0" y2="997.7"/><line x1="648.0" y1="935.3" x2="684.0" y2="997.7"/><line x1="720.0" y1="935.3" x2="792.0" y2="935.3"/><line x1="720.0" y1="935.3" x2="684.0" y2="997.7"/><line x1="720.0" y1="935.3" x2="756.0" y2="997.7"/><line x1="-36.0" y1="997.7" x2="36.0" y2="997.7"/><line x1="-36.0" y1="997.7" x2="-72.0" y2="1060.0"/><line x1="-36.0" y1="997.7" x2="0.0" y2="1060.0"/><line x1="36.0" y1="997.7" x2="108.0" y2="997.7"/><line x1="36.0" y1="997.7" x2="0.0" y2="1060.0"/><line x1="36.0" y1="997.7" x2="72.0" y2="1060.0"/><line x1="108.0" y1="997.7" x2="180.0" y2="997.7"/><line x1="108.0" y1="997.7" x2="72.0" y2="1060.0"/><line x1="108.0" y1="997.7" x2="144.0" y2="1060.0"/><line x1="180.0" y1="997.7" x2="252.0" y2="997.7"/><line x1="180.0" y1="997.7" x2="144.0" y2="1060.0"/><line x1="180.0" y1="997.7" x2="216.0" y2="1060.0"/><line x1="252.0" y1="997.7" x2="324.0" y2="997.7"/><line x1="252.0" y1="997.7" x2="216.0" y2="1060.0"/><line x1="252.0" y1="997.7" x2="288.0" y2="1060.0"/><line x1="324.0" y1="997.7" x2="396.0" y2="997.7"/><line x1="324.0" y1="997.7" x2="288.0" y2="1060.0"/><line x1="324.0" y1="997.7" x2="360.0" y2="1060.0"/><line x1="396.0" y1="997.7" x2="468.0" y2="997.7"/><line x1="396.0" y1="997.7" x2="360.0" y2="1060.0"/><line x1="396.0" y1="997.7" x2="432.0" y2="1060.0"/><line x1="468.0" y1="997.7" x2="540.0" y2="997.7"/><line x1="468.0" y1="997.7" x2="432.0" y2="1060.0"/><line x1="468.0" y1="997.7" x2="504.0" y2="1060.0"/><line x1="540.0" y1="997.7" x2="612.0" y2="997.7"/><line x1="540.0" y1="997.7" x2="504.0" y2="1060.0"/><line x1="540.0" y1="997.7" x2="576.0" y2="1060.0"/><line x1="612.0" y1="997.7" x2="684.0" y2="997.7"/><line x1="612.0" y1="997.7" x2="576.0" y2="1060.0"/><line x1="612.0" y1="997.7" x2="648.0" y2="1060.0"/><line x1="684.0" y1="997.7" x2="756.0" y2="997.7"/><line x1="684.0" y1="997.7" x2="648.0" y2="1060.0"/><line x1="684.0" y1="997.7" x2="720.0" y2="1060.0"/><line x1="756.0" y1="997.7" x2="828.0" y2="997.7"/><line x1="756.0" y1="997.7" x2="720.0" y2="1060.0"/><line x1="756.0" y1="997.7" x2="792.0" y2="1060.0"/><line x1="-72.0" y1="1060.0" x2="0.0" y2="1060.0"/><line x1="-72.0" y1="1060.0" x2="-108.0" y2="1122.4"/><line x1="-72.0" y1="1060.0" x2="-36.0" y2="1122.4"/><line x1="0.0" y1="1060.0" x2="72.0" y2="1060.0"/><line x1="0.0" y1="1060.0" x2="-36.0" y2="1122.4"/><line x1="0.0" y1="1060.0" x2="36.0" y2="1122.4"/><line x1="72.0" y1="1060.0" x2="144.0" y2="1060.0"/><line x1="72.0" y1="1060.0" x2="36.0" y2="1122.4"/><line x1="72.0" y1="1060.0" x2="108.0" y2="1122.4"/><line x1="144.0" y1="1060.0" x2="216.0" y2="1060.0"/><line x1="144.0" y1="1060.0" x2="108.0" y2="1122.4"/><line x1="144.0" y1="1060.0" x2="180.0" y2="1122.4"/><line x1="216.0" y1="1060.0" x2="288.0" y2="1060.0"/><line x1="216.0" y1="1060.0" x2="180.0" y2="1122.4"/><line x1="216.0" y1="1060.0" x2="252.0" y2="1122.4"/><line x1="288.0" y1="1060.0" x2="360.0" y2="1060.0"/><line x1="288.0" y1="1060.0" x2="252.0" y2="1122.4"/><line x1="288.0" y1="1060.0" x2="324.0" y2="1122.4"/><line x1="360.0" y1="1060.0" x2="432.0" y2="1060.0"/><line x1="360.0" y1="1060.0" x2="324.0" y2="1122.4"/><line x1="360.0" y1="1060.0" x2="396.0" y2="1122.4"/><line x1="432.0" y1="1060.0" x2="504.0" y2="1060.0"/><line x1="432.0" y1="1060.0" x2="396.0" y2="1122.4"/><line x1="432.0" y1="1060.0" x2="468.0" y2="1122.4"/><line x1="504.0" y1="1060.0" x2="576.0" y2="1060.0"/><line x1="504.0" y1="1060.0" x2="468.0" y2="1122.4"/><line x1="504.0" y1="1060.0" x2="540.0" y2="1122.4"/><line x1="576.0" y1="1060.0" x2="648.0" y2="1060.0"/><line x1="576.0" y1="1060.0" x2="540.0" y2="1122.4"/><line x1="576.0" y1="1060.0" x2="612.0" y2="1122.4"/><line x1="648.0" y1="1060.0" x2="720.0" y2="1060.0"/><line x1="648.0" y1="1060.0" x2="612.0" y2="1122.4"/><line x1="648.0" y1="1060.0" x2="684.0" y2="1122.4"/><line x1="720.0" y1="1060.0" x2="792.0" y2="1060.0"/><line x1="720.0" y1="1060.0" x2="684.0" y2="1122.4"/><line x1="720.0" y1="1060.0" x2="756.0" y2="1122.4"/><line x1="-36.0" y1="1122.4" x2="36.0" y2="1122.4"/><line x1="-36.0" y1="1122.4" x2="-72.0" y2="1184.7"/><line x1="-36.0" y1="1122.4" x2="0.0" y2="1184.7"/><line x1="36.0" y1="1122.4" x2="108.0" y2="1122.4"/><line x1="36.0" y1="1122.4" x2="0.0" y2="1184.7"/><line x1="36.0" y1="1122.4" x2="72.0" y2="1184.7"/><line x1="108.0" y1="1122.4" x2="180.0" y2="1122.4"/><line x1="108.0" y1="1122.4" x2="72.0" y2="1184.7"/><line x1="108.0" y1="1122.4" x2="144.0" y2="1184.7"/><line x1="180.0" y1="1122.4" x2="252.0" y2="1122.4"/><line x1="180.0" y1="1122.4" x2="144.0" y2="1184.7"/><line x1="180.0" y1="1122.4" x2="216.0" y2="1184.7"/><line x1="252.0" y1="1122.4" x2="324.0" y2="1122.4"/><line x1="252.0" y1="1122.4" x2="216.0" y2="1184.7"/><line x1="252.0" y1="1122.4" x2="288.0" y2="1184.7"/><line x1="324.0" y1="1122.4" x2="396.0" y2="1122.4"/><line x1="324.0" y1="1122.4" x2="288.0" y2="1184.7"/><line x1="324.0" y1="1122.4" x2="360.0" y2="1184.7"/><line x1="396.0" y1="1122.4" x2="468.0" y2="1122.4"/><line x1="396.0" y1="1122.4" x2="360.0" y2="1184.7"/><line x1="396.0" y1="1122.4" x2="432.0" y2="1184.7"/><line x1="468.0" y1="1122.4" x2="540.0" y2="1122.4"/><line x1="468.0" y1="1122.4" x2="432.0" y2="1184.7"/><line x1="468.0" y1="1122.4" x2="504.0" y2="1184.7"/><line x1="540.0" y1="1122.4" x2="612.0" y2="1122.4"/><line x1="540.0" y1="1122.4" x2="504.0" y2="1184.7"/><line x1="540.0" y1="1122.4" x2="576.0" y2="1184.7"/><line x1="612.0" y1="1122.4" x2="684.0" y2="1122.4"/><line x1="612.0" y1="1122.4" x2="576.0" y2="1184.7"/><line x1="612.0" y1="1122.4" x2="648.0" y2="1184.7"/><line x1="684.0" y1="1122.4" x2="756.0" y2="1122.4"/><line x1="684.0" y1="1122.4" x2="648.0" y2="1184.7"/><line x1="684.0" y1="1122.4" x2="720.0" y2="1184.7"/><line x1="756.0" y1="1122.4" x2="828.0" y2="1122.4"/><line x1="756.0" y1="1122.4" x2="720.0" y2="1184.7"/><line x1="756.0" y1="1122.4" x2="792.0" y2="1184.7"/><line x1="-72.0" y1="1184.7" x2="0.0" y2="1184.7"/><line x1="-72.0" y1="1184.7" x2="-108.0" y2="1247.1"/><line x1="-72.0" y1="1184.7" x2="-36.0" y2="1247.1"/><line x1="0.0" y1="1184.7" x2="72.0" y2="1184.7"/><line x1="0.0" y1="1184.7" x2="-36.0" y2="1247.1"/><line x1="0.0" y1="1184.7" x2="36.0" y2="1247.1"/><line x1="72.0" y1="1184.7" x2="144.0" y2="1184.7"/><line x1="72.0" y1="1184.7" x2="36.0" y2="1247.1"/><line x1="72.0" y1="1184.7" x2="108.0" y2="1247.1"/><line x1="144.0" y1="1184.7" x2="216.0" y2="1184.7"/><line x1="144.0" y1="1184.7" x2="108.0" y2="1247.1"/><line x1="144.0" y1="1184.7" x2="180.0" y2="1247.1"/><line x1="216.0" y1="1184.7" x2="288.0" y2="1184.7"/><line x1="216.0" y1="1184.7" x2="180.0" y2="1247.1"/><line x1="216.0" y1="1184.7" x2="252.0" y2="1247.1"/><line x1="288.0" y1="1184.7" x2="360.0" y2="1184.7"/><line x1="288.0" y1="1184.7" x2="252.0" y2="1247.1"/><line x1="288.0" y1="1184.7" x2="324.0" y2="1247.1"/><line x1="360.0" y1="1184.7" x2="432.0" y2="1184.7"/><line x1="360.0" y1="1184.7" x2="324.0" y2="1247.1"/><line x1="360.0" y1="1184.7" x2="396.0" y2="1247.1"/><line x1="432.0" y1="1184.7" x2="504.0" y2="1184.7"/><line x1="432.0" y1="1184.7" x2="396.0" y2="1247.1"/><line x1="432.0" y1="1184.7" x2="468.0" y2="1247.1"/><line x1="504.0" y1="1184.7" x2="576.0" y2="1184.7"/><line x1="504.0" y1="1184.7" x2="468.0" y2="1247.1"/><line x1="504.0" y1="1184.7" x2="540.0" y2="1247.1"/><line x1="576.0" y1="1184.7" x2="648.0" y2="1184.7"/><line x1="576.0" y1="1184.7" x2="540.0" y2="1247.1"/><line x1="576.0" y1="1184.7" x2="612.0" y2="1247.1"/><line x1="648.0" y1="1184.7" x2="720.0" y2="1184.7"/><line x1="648.0" y1="1184.7" x2="612.0" y2="1247.1"/><line x1="648.0" y1="1184.7" x2="684.0" y2="1247.1"/><line x1="720.0" y1="1184.7" x2="792.0" y2="1184.7"/><line x1="720.0" y1="1184.7" x2="684.0" y2="1247.1"/><line x1="720.0" y1="1184.7" x2="756.0" y2="1247.1"/></g><g fill="#101010" stroke="none"><circle cx="-72.0" cy="-62.4" r="1.4"/><circle cx="0.0" cy="-62.4" r="1.4"/><circle cx="72.0" cy="-62.4" r="1.4"/><circle cx="144.0" cy="-62.4" r="1.4"/><circle cx="216.0" cy="-62.4" r="1.4"/><circle cx="288.0" cy="-62.4" r="1.4"/><circle cx="360.0" cy="-62.4" r="1.4"/><circle cx="432.0" cy="-62.4" r="1.4"/><circle cx="504.0" cy="-62.4" r="1.4"/><circle cx="576.0" cy="-62.4" r="1.4"/><circle cx="648.0" cy="-62.4" r="1.4"/><circle cx="720.0" cy="-62.4" r="1.4"/><circle cx="-36.0" cy="0.0" r="1.4"/><circle cx="36.0" cy="0.0" r="1.4"/><circle cx="108.0" cy="0.0" r="1.4"/><circle cx="180.0" cy="0.0" r="1.4"/><circle cx="252.0" cy="0.0" r="1.4"/><circle cx="324.0" cy="0.0" r="1.4"/><circle cx="396.0" cy="0.0" r="1.4"/><circle cx="468.0" cy="0.0" r="1.4"/><circle cx="540.0" cy="0.0" r="1.4"/><circle cx="612.0" cy="0.0" r="1.4"/><circle cx="684.0" cy="0.0" r="1.4"/><circle cx="756.0" cy="0.0" r="1.4"/><circle cx="-72.0" cy="62.4" r="1.4"/><circle cx="0.0" cy="62.4" r="1.4"/><circle cx="72.0" cy="62.4" r="1.4"/><circle cx="144.0" cy="62.4" r="1.4"/><circle cx="216.0" cy="62.4" r="1.4"/><circle cx="288.0" cy="62.4" r="1.4"/><circle cx="360.0" cy="62.4" r="1.4"/><circle cx="432.0" cy="62.4" r="1.4"/><circle cx="504.0" cy="62.4" r="1.4"/><circle cx="576.0" cy="62.4" r="1.4"/><circle cx="648.0" cy="62.4" r="1.4"/><circle cx="720.0" cy="62.4" r="1.4"/><circle cx="-36.0" cy="124.7" r="1.4"/><circle cx="36.0" cy="124.7" r="1.4"/><circle cx="108.0" cy="124.7" r="1.4"/><circle cx="180.0" cy="124.7" r="1.4"/><circle cx="252.0" cy="124.7" r="1.4"/><circle cx="324.0" cy="124.7" r="1.4"/><circle cx="396.0" cy="124.7" r="1.4"/><circle cx="468.0" cy="124.7" r="1.4"/><circle cx="540.0" cy="124.7" r="1.4"/><circle cx="612.0" cy="124.7" r="1.4"/><circle cx="684.0" cy="124.7" r="1.4"/><circle cx="756.0" cy="124.7" r="1.4"/><circle cx="-72.0" cy="187.1" r="1.4"/><circle cx="0.0" cy="187.1" r="1.4"/><circle cx="72.0" cy="187.1" r="1.4"/><circle cx="144.0" cy="187.1" r="1.4"/><circle cx="216.0" cy="187.1" r="1.4"/><circle cx="288.0" cy="187.1" r="1.4"/><circle cx="360.0" cy="187.1" r="1.4"/><circle cx="432.0" cy="187.1" r="1.4"/><circle cx="504.0" cy="187.1" r="1.4"/><circle cx="576.0" cy="187.1" r="1.4"/><circle cx="648.0" cy="187.1" r="1.4"/><circle cx="720.0" cy="187.1" r="1.4"/><circle cx="-36.0" cy="249.4" r="1.4"/><circle cx="36.0" cy="249.4" r="1.4"/><circle cx="108.0" cy="249.4" r="1.4"/><circle cx="180.0" cy="249.4" r="1.4"/><circle cx="252.0" cy="249.4" r="1.4"/><circle cx="324.0" cy="249.4" r="1.4"/><circle cx="396.0" cy="249.4" r="1.4"/><circle cx="468.0" cy="249.4" r="1.4"/><circle cx="540.0" cy="249.4" r="1.4"/><circle cx="612.0" cy="249.4" r="1.4"/><circle cx="684.0" cy="249.4" r="1.4"/><circle cx="756.0" cy="249.4" r="1.4"/><circle cx="-72.0" cy="311.8" r="1.4"/><circle cx="0.0" cy="311.8" r="1.4"/><circle cx="72.0" cy="311.8" r="1.4"/><circle cx="144.0" cy="311.8" r="1.4"/><circle cx="216.0" cy="311.8" r="1.4"/><circle cx="288.0" cy="311.8" r="1.4"/><circle cx="360.0" cy="311.8" r="1.4"/><circle cx="432.0" cy="311.8" r="1.4"/><circle cx="504.0" cy="311.8" r="1.4"/><circle cx="576.0" cy="311.8" r="1.4"/><circle cx="648.0" cy="311.8" r="1.4"/><circle cx="720.0" cy="311.8" r="1.4"/><circle cx="-36.0" cy="374.1" r="1.4"/><circle cx="36.0" cy="374.1" r="1.4"/><circle cx="108.0" cy="374.1" r="1.4"/><circle cx="180.0" cy="374.1" r="1.4"/><circle cx="252.0" cy="374.1" r="1.4"/><circle cx="324.0" cy="374.1" r="1.4"/><circle cx="396.0" cy="374.1" r="1.4"/><circle cx="468.0" cy="374.1" r="1.4"/><circle cx="540.0" cy="374.1" r="1.4"/><circle cx="612.0" cy="374.1" r="1.4"/><circle cx="684.0" cy="374.1" r="1.4"/><circle cx="756.0" cy="374.1" r="1.4"/><circle cx="-72.0" cy="436.5" r="1.4"/><circle cx="0.0" cy="436.5" r="1.4"/><circle cx="72.0" cy="436.5" r="1.4"/><circle cx="144.0" cy="436.5" r="1.4"/><circle cx="216.0" cy="436.5" r="1.4"/><circle cx="288.0" cy="436.5" r="1.4"/><circle cx="360.0" cy="436.5" r="1.4"/><circle cx="432.0" cy="436.5" r="1.4"/><circle cx="504.0" cy="436.5" r="1.4"/><circle cx="576.0" cy="436.5" r="1.4"/><circle cx="648.0" cy="436.5" r="1.4"/><circle cx="720.0" cy="436.5" r="1.4"/><circle cx="-36.0" cy="498.8" r="1.4"/><circle cx="36.0" cy="498.8" r="1.4"/><circle cx="108.0" cy="498.8" r="1.4"/><circle cx="180.0" cy="498.8" r="1.4"/><circle cx="252.0" cy="498.8" r="1.4"/><circle cx="324.0" cy="498.8" r="1.4"/><circle cx="396.0" cy="498.8" r="1.4"/><circle cx="468.0" cy="498.8" r="1.4"/><circle cx="540.0" cy="498.8" r="1.4"/><circle cx="612.0" cy="498.8" r="1.4"/><circle cx="684.0" cy="498.8" r="1.4"/><circle cx="756.0" cy="498.8" r="1.4"/><circle cx="-72.0" cy="561.2" r="1.4"/><circle cx="0.0" cy="561.2" r="1.4"/><circle cx="72.0" cy="561.2" r="1.4"/><circle cx="144.0" cy="561.2" r="1.4"/><circle cx="216.0" cy="561.2" r="1.4"/><circle cx="288.0" cy="561.2" r="1.4"/><circle cx="360.0" cy="561.2" r="1.4"/><circle cx="432.0" cy="561.2" r="1.4"/><circle cx="504.0" cy="561.2" r="1.4"/><circle cx="576.0" cy="561.2" r="1.4"/><circle cx="648.0" cy="561.2" r="1.4"/><circle cx="720.0" cy="561.2" r="1.4"/><circle cx="-36.0" cy="623.5" r="1.4"/><circle cx="36.0" cy="623.5" r="1.4"/><circle cx="108.0" cy="623.5" r="1.4"/><circle cx="180.0" cy="623.5" r="1.4"/><circle cx="252.0" cy="623.5" r="1.4"/><circle cx="324.0" cy="623.5" r="1.4"/><circle cx="396.0" cy="623.5" r="1.4"/><circle cx="468.0" cy="623.5" r="1.4"/><circle cx="540.0" cy="623.5" r="1.4"/><circle cx="612.0" cy="623.5" r="1.4"/><circle cx="684.0" cy="623.5" r="1.4"/><circle cx="756.0" cy="623.5" r="1.4"/><circle cx="-72.0" cy="685.9" r="1.4"/><circle cx="0.0" cy="685.9" r="1.4"/><circle cx="72.0" cy="685.9" r="1.4"/><circle cx="144.0" cy="685.9" r="1.4"/><circle cx="216.0" cy="685.9" r="1.4"/><circle cx="288.0" cy="685.9" r="1.4"/><circle cx="360.0" cy="685.9" r="1.4"/><circle cx="432.0" cy="685.9" r="1.4"/><circle cx="504.0" cy="685.9" r="1.4"/><circle cx="576.0" cy="685.9" r="1.4"/><circle cx="648.0" cy="685.9" r="1.4"/><circle cx="720.0" cy="685.9" r="1.4"/><circle cx="-36.0" cy="748.2" r="1.4"/><circle cx="36.0" cy="748.2" r="1.4"/><circle cx="108.0" cy="748.2" r="1.4"/><circle cx="180.0" cy="748.2" r="1.4"/><circle cx="252.0" cy="748.2" r="1.4"/><circle cx="324.0" cy="748.2" r="1.4"/><circle cx="396.0" cy="748.2" r="1.4"/><circle cx="468.0" cy="748.2" r="1.4"/><circle cx="540.0" cy="748.2" r="1.4"/><circle cx="612.0" cy="748.2" r="1.4"/><circle cx="684.0" cy="748.2" r="1.4"/><circle cx="756.0" cy="748.2" r="1.4"/><circle cx="-72.0" cy="810.6" r="1.4"/><circle cx="0.0" cy="810.6" r="1.4"/><circle cx="72.0" cy="810.6" r="1.4"/><circle cx="144.0" cy="810.6" r="1.4"/><circle cx="216.0" cy="810.6" r="1.4"/><circle cx="288.0" cy="810.6" r="1.4"/><circle cx="360.0" cy="810.6" r="1.4"/><circle cx="432.0" cy="810.6" r="1.4"/><circle cx="504.0" cy="810.6" r="1.4"/><circle cx="576.0" cy="810.6" r="1.4"/><circle cx="648.0" cy="810.6" r="1.4"/><circle cx="720.0" cy="810.6" r="1.4"/><circle cx="-36.0" cy="873.0" r="1.4"/><circle cx="36.0" cy="873.0" r="1.4"/><circle cx="108.0" cy="873.0" r="1.4"/><circle cx="180.0" cy="873.0" r="1.4"/><circle cx="252.0" cy="873.0" r="1.4"/><circle cx="324.0" cy="873.0" r="1.4"/><circle cx="396.0" cy="873.0" r="1.4"/><circle cx="468.0" cy="873.0" r="1.4"/><circle cx="540.0" cy="873.0" r="1.4"/><circle cx="612.0" cy="873.0" r="1.4"/><circle cx="684.0" cy="873.0" r="1.4"/><circle cx="756.0" cy="873.0" r="1.4"/><circle cx="-72.0" cy="935.3" r="1.4"/><circle cx="0.0" cy="935.3" r="1.4"/><circle cx="72.0" cy="935.3" r="1.4"/><circle cx="144.0" cy="935.3" r="1.4"/><circle cx="216.0" cy="935.3" r="1.4"/><circle cx="288.0" cy="935.3" r="1.4"/><circle cx="360.0" cy="935.3" r="1.4"/><circle cx="432.0" cy="935.3" r="1.4"/><circle cx="504.0" cy="935.3" r="1.4"/><circle cx="576.0" cy="935.3" r="1.4"/><circle cx="648.0" cy="935.3" r="1.4"/><circle cx="720.0" cy="935.3" r="1.4"/><circle cx="-36.0" cy="997.7" r="1.4"/><circle cx="36.0" cy="997.7" r="1.4"/><circle cx="108.0" cy="997.7" r="1.4"/><circle cx="180.0" cy="997.7" r="1.4"/><circle cx="252.0" cy="997.7" r="1.4"/><circle cx="324.0" cy="997.7" r="1.4"/><circle cx="396.0" cy="997.7" r="1.4"/><circle cx="468.0" cy="997.7" r="1.4"/><circle cx="540.0" cy="997.7" r="1.4"/><circle cx="612.0" cy="997.7" r="1.4"/><circle cx="684.0" cy="997.7" r="1.4"/><circle cx="756.0" cy="997.7" r="1.4"/><circle cx="-72.0" cy="1060.0" r="1.4"/><circle cx="0.0" cy="1060.0" r="1.4"/><circle cx="72.0" cy="1060.0" r="1.4"/><circle cx="144.0" cy="1060.0" r="1.4"/><circle cx="216.0" cy="1060.0" r="1.4"/><circle cx="288.0" cy="1060.0" r="1.4"/><circle cx="360.0" cy="1060.0" r="1.4"/><circle cx="432.0" cy="1060.0" r="1.4"/><circle cx="504.0" cy="1060.0" r="1.4"/><circle cx="576.0" cy="1060.0" r="1.4"/><circle cx="648.0" cy="1060.0" r="1.4"/><circle cx="720.0" cy="1060.0" r="1.4"/><circle cx="-36.0" cy="1122.4" r="1.4"/><circle cx="36.0" cy="1122.4" r="1.4"/><circle cx="108.0" cy="1122.4" r="1.4"/><circle cx="180.0" cy="1122.4" r="1.4"/><circle cx="252.0" cy="1122.4" r="1.4"/><circle cx="324.0" cy="1122.4" r="1.4"/><circle cx="396.0" cy="1122.4" r="1.4"/><circle cx="468.0" cy="1122.4" r="1.4"/><circle cx="540.0" cy="1122.4" r="1.4"/><circle cx="612.0" cy="1122.4" r="1.4"/><circle cx="684.0" cy="1122.4" r="1.4"/><circle cx="756.0" cy="1122.4" r="1.4"/><circle cx="-72.0" cy="1184.7" r="1.4"/><circle cx="0.0" cy="1184.7" r="1.4"/><circle cx="72.0" cy="1184.7" r="1.4"/><circle cx="144.0" cy="1184.7" r="1.4"/><circle cx="216.0" cy="1184.7" r="1.4"/><circle cx="288.0" cy="1184.7" r="1.4"/><circle cx="360.0" cy="1184.7" r="1.4"/><circle cx="432.0" cy="1184.7" r="1.4"/><circle cx="504.0" cy="1184.7" r="1.4"/><circle cx="576.0" cy="1184.7" r="1.4"/><circle cx="648.0" cy="1184.7" r="1.4"/><circle cx="720.0" cy="1184.7" r="1.4"/></g>
  <!-- Dégage le maillage derrière le symbole héros -->
  <ellipse cx="337.5" cy="470" rx="250" ry="250" fill="url(#heroClear)"/>

  <rect width="675" height="1125" fill="url(#vig)"/>
  <ellipse cx="337.5" cy="448" rx="260" ry="260" fill="url(#sheenHalo)"/>

  <!-- Symbole héros (noir-sur-noir glassy ; la vraie brillance vient du spot-UV) -->
  <g transform="translate(337.5,470) scale(1.85)">
    <g fill="none" stroke="url(#heroSheen)" stroke-width="8" stroke-linecap="round" stroke-linejoin="round"><path d="M0 -88 L76 -44 L76 44 L0 88 L-76 44 L-76 -44 Z"/><path d="M0 -88 L0 88"/><path d="M-76 -44 L76 44"/><path d="M76 -44 L-76 44"/></g>
    <g fill="#3A3A40" stroke="none"><circle cx="0" cy="-88" r="13"/><circle cx="76" cy="-44" r="13"/><circle cx="76" cy="44" r="13"/><circle cx="0" cy="88" r="13"/><circle cx="-76" cy="44" r="13"/><circle cx="-76" cy="-44" r="13"/></g></g>

  <!-- Filet d'ancrage discret au-dessus du nom -->
  <rect x="315.5" y="958" width="44" height="1.5" fill="#2A2A2A"/>

  <!-- Nom DISCRET (capitales + tracking large = signal premium sobre) -->
  <text x="337.5" y="1000" text-anchor="middle" font-size="30" font-weight="600" letter-spacing="4" fill="#EDEDED">PATRICK PATENAUDE</text>
  <text x="337.5" y="1030" text-anchor="middle" font-size="13" font-weight="600" letter-spacing="5" fill="#8A8A8A">DÉVELOPPEUR FULLSTACK</text>
</svg>
