<svg xmlns="http://www.w3.org/2000/svg" viewBox="0 0 1125 675" width="1125" height="675" font-family="Inter, 'Helvetica Neue', Arial, sans-serif">
  <defs>
    <!-- ===== NAPPES AURORA (miroir du recto, pôles inversés pour équilibrer le verso) ===== -->
    <radialGradient id="auroraCyanB" cx="0.74" cy="0.74" r="0.6">
      <stop offset="0" stop-color="#22D3EE" stop-opacity="0.15"/>
      <stop offset="0.5" stop-color="#22D3EE" stop-opacity="0.05"/>
      <stop offset="1" stop-color="#0A0E1A" stop-opacity="0"/>
    </radialGradient>
    <radialGradient id="auroraBlueB" cx="0.2" cy="0.2" r="0.66">
      <stop offset="0" stop-color="#3B82F6" stop-opacity="0.16"/>
      <stop offset="0.55" stop-color="#3B82F6" stop-opacity="0.04"/>
      <stop offset="1" stop-color="#0A0E1A" stop-opacity="0"/>
    </radialGradient>
    <radialGradient id="auroraVeilB" cx="0.5" cy="0.5" r="0.7">
      <stop offset="0" stop-color="#22D3EE" stop-opacity="0.06"/>
      <stop offset="0.6" stop-color="#22D3EE" stop-opacity="0.02"/>
      <stop offset="1" stop-color="#0A0E1A" stop-opacity="0"/>
    </radialGradient>
    <radialGradient id="vignetteB" cx="0.5" cy="0.5" r="0.72">
      <stop offset="0.55" stop-color="#0A0E1A" stop-opacity="0"/>
      <stop offset="1" stop-color="#000308" stop-opacity="0.55"/>
    </radialGradient>
    <radialGradient id="qrHalo" cx="0.5" cy="0.5" r="0.5">
      <stop offset="0" stop-color="#22D3EE" stop-opacity="0.16"/>
      <stop offset="1" stop-color="#22D3EE" stop-opacity="0"/>
    </radialGradient>
    <!-- Filet en dégradé : net à gauche, se fond vers la droite -->
    <linearGradient id="ruleFade" x1="0" y1="0" x2="1" y2="0">
      <stop offset="0" stop-color="#22D3EE" stop-opacity="0.6"/>
      <stop offset="0.4" stop-color="#22D3EE" stop-opacity="0.22"/>
      <stop offset="1" stop-color="#22D3EE" stop-opacity="0"/>
    </linearGradient>

    <filter id="grainB" x="0" y="0" width="100%" height="100%">
      <feTurbulence type="fractalNoise" baseFrequency="0.9" numOctaves="2" stitchTiles="stitch" result="noise"/>
      <feColorMatrix in="noise" type="saturate" values="0"/>
      <feComponentTransfer>
        <feFuncA type="linear" slope="0.05"/>
      </feComponentTransfer>
    </filter>
  </defs>

  <!-- Fond plein cadre -->
  <rect width="1125" height="675" fill="#0A0E1A"/>

  <!-- Atmosphère aurora -->
  <rect width="1125" height="675" fill="url(#auroraVeilB)"/>
  <rect width="1125" height="675" fill="url(#auroraBlueB)"/>
  <rect width="1125" height="675" fill="url(#auroraCyanB)"/>

  <!-- Filaments d'aurore diffus (espacés, traversant tout le cadre) -->
  <g fill="none" stroke-linecap="round">
    <path d="M-40 210 C 280 300, 600 170, 1165 280" stroke="#22D3EE" stroke-opacity="0.08" stroke-width="2"/>
    <path d="M-40 120 C 320 200, 620 90, 1165 170" stroke="#3B82F6" stroke-opacity="0.07" stroke-width="1.6"/>
  </g>

  <rect width="1125" height="675" fill="url(#vignetteB)"/>
  <!-- (grain retiré : perf de rendu + sécurité impression) -->

  <!-- ===== LOGO + NOM (en-tête gauche, zone de sécurité) ===== -->
  <!-- boîte 0..100, placée à (75,75) échelle 0.62 -> ~62x62 -->
  <g transform="translate(75,75) scale(0.62)">
    <g id="logo-placeholder"><line x1="20" y1="78" x2="80" y2="78" stroke="#22D3EE" stroke-width="4"/><line x1="20" y1="78" x2="50" y2="22" stroke="#22D3EE" stroke-width="4"/><line x1="80" y1="78" x2="50" y2="22" stroke="#22D3EE" stroke-width="4"/><circle cx="50" cy="22" r="9" fill="#22D3EE"/><circle cx="20" cy="78" r="7" fill="#E8EEF5"/><circle cx="80" cy="78" r="7" fill="#E8EEF5"/></g>
  </g>
  <text x="152" y="106" font-size="26" font-weight="700" letter-spacing="1.5" fill="#E8EEF5">Patrick Patenaude</text>
  <text x="153" y="134" font-size="14" font-weight="600" letter-spacing="4.5" fill="#8E9BB0">DÉVELOPPEUR <tspan fill="#22D3EE">FULLSTACK</tspan></text>

  <!-- Filet de séparation sous l'en-tête : dégradé net→fondu -->
  <rect x="75" y="170" width="975" height="2.4" rx="1.2" fill="url(#ruleFade)"/>

  <!-- ===== COLONNE CONTACT (4 lignes, micro-icônes cyan) ===== -->
  <!-- Icônes 24x24 ; cadrées dans une cellule, scale via transform. Baseline texte alignée au centre de l'icône (+17 sur y de l'icône) -->

  <!-- email -->
  <g transform="translate(75,232) scale(0.92)">
    <path fill="#22D3EE" d="M2 6.2A2.2 2.2 0 0 1 4.2 4h15.6A2.2 2.2 0 0 1 22 6.2v.5l-10 6.05L2 6.7v-.5zM2 8.95V17.8A2.2 2.2 0 0 0 4.2 20h15.6a2.2 2.2 0 0 0 2.2-2.2V8.95l-9.48 5.74a1 1 0 0 1-1.04 0L2 8.95z"/>
  </g>
  <text x="116" y="251" font-size="22" font-weight="500" letter-spacing="0.4" fill="#E8EEF5">ppatenaude@hotmail.fr</text>

  <!-- phone -->
  <g transform="translate(75,300) scale(0.92)">
    <path fill="#22D3EE" d="M6.6 10.9a13.6 13.6 0 0 0 6.5 6.5l2.17-2.17a1 1 0 0 1 1.02-.24 11.5 11.5 0 0 0 3.6.58 1 1 0 0 1 1 1V20a1 1 0 0 1-1 1A17 17 0 0 1 3 4a1 1 0 0 1 1-1h3.5a1 1 0 0 1 1 1 11.5 11.5 0 0 0 .58 3.6 1 1 0 0 1-.25 1.02L6.6 10.9z"/>
  </g>
  <text x="116" y="319" font-size="22" font-weight="500" letter-spacing="0.4" fill="#E8EEF5">+1 (450) 808-2321</text>

  <!-- linkedin -->
  <g transform="translate(75,368) scale(0.92)">
    <path fill="#22D3EE" d="M20.45 20.45h-3.56v-5.57c0-1.33-.02-3.04-1.85-3.04-1.85 0-2.14 1.45-2.14 2.94v5.67H9.35V9h3.41v1.56h.05c.48-.9 1.64-1.85 3.37-1.85 3.6 0 4.27 2.37 4.27 5.46v6.28zM5.34 7.43a2.06 2.06 0 1 1 0-4.13 2.06 2.06 0 0 1 0 4.13zM7.12 20.45H3.56V9h3.56v11.45zM22.22 0H1.77C.79 0 0 .77 0 1.73v20.54C0 23.23.79 24 1.77 24h20.45C23.2 24 24 23.23 24 22.27V1.73C24 .77 23.2 0 22.22 0z"/>
  </g>
  <text x="116" y="387" font-size="22" font-weight="500" letter-spacing="0.4" fill="#E8EEF5">linkedin.com/in/<tspan fill="#22D3EE" font-weight="600">patrickpatenaude</tspan></text>

  <!-- github -->
  <g transform="translate(75,436) scale(0.92)">
    <path fill="#22D3EE" d="M12 .3a12 12 0 0 0-3.79 23.4c.6.1.82-.26.82-.58v-2.03c-3.34.72-4.04-1.61-4.04-1.61-.55-1.39-1.34-1.76-1.34-1.76-1.08-.74.09-.73.09-.73 1.2.08 1.84 1.24 1.84 1.24 1.07 1.83 2.81 1.3 3.5 1 .1-.78.42-1.31.76-1.61-2.67-.3-5.47-1.33-5.47-5.93 0-1.31.47-2.38 1.24-3.22-.13-.3-.54-1.52.11-3.18 0 0 1.01-.32 3.3 1.23a11.5 11.5 0 0 1 6.01 0c2.29-1.55 3.3-1.23 3.3-1.23.65 1.66.24 2.88.12 3.18.77.84 1.23 1.91 1.23 3.22 0 4.61-2.8 5.63-5.48 5.92.43.37.81 1.1.81 2.22v3.29c0 .32.22.69.82.57A12 12 0 0 0 12 .3z"/>
  </g>
  <text x="116" y="455" font-size="22" font-weight="500" letter-spacing="0.4" fill="#E8EEF5">github.com/<tspan fill="#22D3EE" font-weight="600">Kamaiko</tspan></text>

  <!-- (tagline retirée du verso : déjà présente au recto) -->

  <!-- ===== QR (droite, dans la zone de sécurité) ===== -->
  <!-- Halo doux derrière le QR -->
  <ellipse cx="912" cy="330" rx="200" ry="200" fill="url(#qrHalo)"/>

  <!-- Plaque QR : carré arrondi clair 200x200 centré à (912,330) -> (812,230) -->
  <g transform="translate(812,230)">
    <rect x="0" y="0" width="200" height="200" rx="18" fill="#E8EEF5"/>
    <!-- Trame grossière 7x7 de modules ; quiet zone via offset 22, pas 22, module 16 -->
    <g fill="#0A0E1A"><rect x="21.62" y="21.62" width="5.71" height="5.71"/><rect x="27.03" y="21.62" width="5.71" height="5.71"/><rect x="32.43" y="21.62" width="5.71" height="5.71"/><rect x="37.84" y="21.62" width="5.71" height="5.71"/><rect x="43.24" y="21.62" width="5.71" height="5.71"/><rect x="48.65" y="21.62" width="5.71" height="5.71"/><rect x="54.05" y="21.62" width="5.71" height="5.71"/><rect x="64.86" y="21.62" width="5.71" height="5.71"/><rect x="81.08" y="21.62" width="5.71" height="5.71"/><rect x="86.49" y="21.62" width="5.71" height="5.71"/><rect x="102.70" y="21.62" width="5.71" height="5.71"/><rect x="108.11" y="21.62" width="5.71" height="5.71"/><rect x="124.32" y="21.62" width="5.71" height="5.71"/><rect x="129.73" y="21.62" width="5.71" height="5.71"/><rect x="140.54" y="21.62" width="5.71" height="5.71"/><rect x="145.95" y="21.62" width="5.71" height="5.71"/><rect x="151.35" y="21.62" width="5.71" height="5.71"/><rect x="156.76" y="21.62" width="5.71" height="5.71"/><rect x="162.16" y="21.62" width="5.71" height="5.71"/><rect x="167.57" y="21.62" width="5.71" height="5.71"/><rect x="172.97" y="21.62" width="5.71" height="5.71"/><rect x="21.62" y="27.03" width="5.71" height="5.71"/><rect x="54.05" y="27.03" width="5.71" height="5.71"/><rect x="64.86" y="27.03" width="5.71" height="5.71"/><rect x="97.30" y="27.03" width="5.71" height="5.71"/><rect x="102.70" y="27.03" width="5.71" height="5.71"/><rect x="140.54" y="27.03" width="5.71" height="5.71"/><rect x="172.97" y="27.03" width="5.71" height="5.71"/><rect x="21.62" y="32.43" width="5.71" height="5.71"/><rect x="32.43" y="32.43" width="5.71" height="5.71"/><rect x="37.84" y="32.43" width="5.71" height="5.71"/><rect x="43.24" y="32.43" width="5.71" height="5.71"/><rect x="54.05" y="32.43" width="5.71" height="5.71"/><rect x="86.49" y="32.43" width="5.71" height="5.71"/><rect x="91.89" y="32.43" width="5.71" height="5.71"/><rect x="97.30" y="32.43" width="5.71" height="5.71"/><rect x="102.70" y="32.43" width="5.71" height="5.71"/><rect x="118.92" y="32.43" width="5.71" height="5.71"/><rect x="124.32" y="32.43" width="5.71" height="5.71"/><rect x="129.73" y="32.43" width="5.71" height="5.71"/><rect x="140.54" y="32.43" width="5.71" height="5.71"/><rect x="151.35" y="32.43" width="5.71" height="5.71"/><rect x="156.76" y="32.43" width="5.71" height="5.71"/><rect x="162.16" y="32.43" width="5.71" height="5.71"/><rect x="172.97" y="32.43" width="5.71" height="5.71"/><rect x="21.62" y="37.84" width="5.71" height="5.71"/><rect x="32.43" y="37.84" width="5.71" height="5.71"/><rect x="37.84" y="37.84" width="5.71" height="5.71"/><rect x="43.24" y="37.84" width="5.71" height="5.71"/><rect x="54.05" y="37.84" width="5.71" height="5.71"/><rect x="64.86" y="37.84" width="5.71" height="5.71"/><rect x="70.27" y="37.84" width="5.71" height="5.71"/><rect x="86.49" y="37.84" width="5.71" height="5.71"/><rect x="108.11" y="37.84" width="5.71" height="5.71"/><rect x="113.51" y="37.84" width="5.71" height="5.71"/><rect x="118.92" y="37.84" width="5.71" height="5.71"/><rect x="140.54" y="37.84" width="5.71" height="5.71"/><rect x="151.35" y="37.84" width="5.71" height="5.71"/><rect x="156.76" y="37.84" width="5.71" height="5.71"/><rect x="162.16" y="37.84" width="5.71" height="5.71"/><rect x="172.97" y="37.84" width="5.71" height="5.71"/><rect x="21.62" y="43.24" width="5.71" height="5.71"/><rect x="32.43" y="43.24" width="5.71" height="5.71"/><rect x="37.84" y="43.24" width="5.71" height="5.71"/><rect x="43.24" y="43.24" width="5.71" height="5.71"/><rect x="54.05" y="43.24" width="5.71" height="5.71"/><rect x="75.68" y="43.24" width="5.71" height="5.71"/><rect x="81.08" y="43.24" width="5.71" height="5.71"/><rect x="86.49" y="43.24" width="5.71" height="5.71"/><rect x="91.89" y="43.24" width="5.71" height="5.71"/><rect x="124.32" y="43.24" width="5.71" height="5.71"/><rect x="140.54" y="43.24" width="5.71" height="5.71"/><rect x="151.35" y="43.24" width="5.71" height="5.71"/><rect x="156.76" y="43.24" width="5.71" height="5.71"/><rect x="162.16" y="43.24" width="5.71" height="5.71"/><rect x="172.97" y="43.24" width="5.71" height="5.71"/><rect x="21.62" y="48.65" width="5.71" height="5.71"/><rect x="54.05" y="48.65" width="5.71" height="5.71"/><rect x="97.30" y="48.65" width="5.71" height="5.71"/><rect x="113.51" y="48.65" width="5.71" height="5.71"/><rect x="118.92" y="48.65" width="5.71" height="5.71"/><rect x="124.32" y="48.65" width="5.71" height="5.71"/><rect x="129.73" y="48.65" width="5.71" height="5.71"/><rect x="140.54" y="48.65" width="5.71" height="5.71"/><rect x="172.97" y="48.65" width="5.71" height="5.71"/><rect x="21.62" y="54.05" width="5.71" height="5.71"/><rect x="27.03" y="54.05" width="5.71" height="5.71"/><rect x="32.43" y="54.05" width="5.71" height="5.71"/><rect x="37.84" y="54.05" width="5.71" height="5.71"/><rect x="43.24" y="54.05" width="5.71" height="5.71"/><rect x="48.65" y="54.05" width="5.71" height="5.71"/><rect x="54.05" y="54.05" width="5.71" height="5.71"/><rect x="64.86" y="54.05" width="5.71" height="5.71"/><rect x="75.68" y="54.05" width="5.71" height="5.71"/><rect x="86.49" y="54.05" width="5.71" height="5.71"/><rect x="97.30" y="54.05" width="5.71" height="5.71"/><rect x="108.11" y="54.05" width="5.71" height="5.71"/><rect x="118.92" y="54.05" width="5.71" height="5.71"/><rect x="129.73" y="54.05" width="5.71" height="5.71"/><rect x="140.54" y="54.05" width="5.71" height="5.71"/><rect x="145.95" y="54.05" width="5.71" height="5.71"/><rect x="151.35" y="54.05" width="5.71" height="5.71"/><rect x="156.76" y="54.05" width="5.71" height="5.71"/><rect x="162.16" y="54.05" width="5.71" height="5.71"/><rect x="167.57" y="54.05" width="5.71" height="5.71"/><rect x="172.97" y="54.05" width="5.71" height="5.71"/><rect x="64.86" y="59.46" width="5.71" height="5.71"/><rect x="70.27" y="59.46" width="5.71" height="5.71"/><rect x="81.08" y="59.46" width="5.71" height="5.71"/><rect x="86.49" y="59.46" width="5.71" height="5.71"/><rect x="91.89" y="59.46" width="5.71" height="5.71"/><rect x="97.30" y="59.46" width="5.71" height="5.71"/><rect x="113.51" y="59.46" width="5.71" height="5.71"/><rect x="124.32" y="59.46" width="5.71" height="5.71"/><rect x="21.62" y="64.86" width="5.71" height="5.71"/><rect x="32.43" y="64.86" width="5.71" height="5.71"/><rect x="37.84" y="64.86" width="5.71" height="5.71"/><rect x="48.65" y="64.86" width="5.71" height="5.71"/><rect x="54.05" y="64.86" width="5.71" height="5.71"/><rect x="59.46" y="64.86" width="5.71" height="5.71"/><rect x="81.08" y="64.86" width="5.71" height="5.71"/><rect x="86.49" y="64.86" width="5.71" height="5.71"/><rect x="91.89" y="64.86" width="5.71" height="5.71"/><rect x="97.30" y="64.86" width="5.71" height="5.71"/><rect x="108.11" y="64.86" width="5.71" height="5.71"/><rect x="113.51" y="64.86" width="5.71" height="5.71"/><rect x="118.92" y="64.86" width="5.71" height="5.71"/><rect x="124.32" y="64.86" width="5.71" height="5.71"/><rect x="140.54" y="64.86" width="5.71" height="5.71"/><rect x="156.76" y="64.86" width="5.71" height="5.71"/><rect x="167.57" y="64.86" width="5.71" height="5.71"/><rect x="172.97" y="64.86" width="5.71" height="5.71"/><rect x="21.62" y="70.27" width="5.71" height="5.71"/><rect x="27.03" y="70.27" width="5.71" height="5.71"/><rect x="32.43" y="70.27" width="5.71" height="5.71"/><rect x="37.84" y="70.27" width="5.71" height="5.71"/><rect x="48.65" y="70.27" width="5.71" height="5.71"/><rect x="59.46" y="70.27" width="5.71" height="5.71"/><rect x="64.86" y="70.27" width="5.71" height="5.71"/><rect x="70.27" y="70.27" width="5.71" height="5.71"/><rect x="86.49" y="70.27" width="5.71" height="5.71"/><rect x="102.70" y="70.27" width="5.71" height="5.71"/><rect x="108.11" y="70.27" width="5.71" height="5.71"/><rect x="118.92" y="70.27" width="5.71" height="5.71"/><rect x="124.32" y="70.27" width="5.71" height="5.71"/><rect x="129.73" y="70.27" width="5.71" height="5.71"/><rect x="135.14" y="70.27" width="5.71" height="5.71"/><rect x="140.54" y="70.27" width="5.71" height="5.71"/><rect x="145.95" y="70.27" width="5.71" height="5.71"/><rect x="151.35" y="70.27" width="5.71" height="5.71"/><rect x="172.97" y="70.27" width="5.71" height="5.71"/><rect x="27.03" y="75.68" width="5.71" height="5.71"/><rect x="37.84" y="75.68" width="5.71" height="5.71"/><rect x="43.24" y="75.68" width="5.71" height="5.71"/><rect x="48.65" y="75.68" width="5.71" height="5.71"/><rect x="54.05" y="75.68" width="5.71" height="5.71"/><rect x="59.46" y="75.68" width="5.71" height="5.71"/><rect x="64.86" y="75.68" width="5.71" height="5.71"/><rect x="75.68" y="75.68" width="5.71" height="5.71"/><rect x="97.30" y="75.68" width="5.71" height="5.71"/><rect x="102.70" y="75.68" width="5.71" height="5.71"/><rect x="113.51" y="75.68" width="5.71" height="5.71"/><rect x="118.92" y="75.68" width="5.71" height="5.71"/><rect x="135.14" y="75.68" width="5.71" height="5.71"/><rect x="140.54" y="75.68" width="5.71" height="5.71"/><rect x="162.16" y="75.68" width="5.71" height="5.71"/><rect x="167.57" y="75.68" width="5.71" height="5.71"/><rect x="48.65" y="81.08" width="5.71" height="5.71"/><rect x="64.86" y="81.08" width="5.71" height="5.71"/><rect x="75.68" y="81.08" width="5.71" height="5.71"/><rect x="91.89" y="81.08" width="5.71" height="5.71"/><rect x="97.30" y="81.08" width="5.71" height="5.71"/><rect x="102.70" y="81.08" width="5.71" height="5.71"/><rect x="124.32" y="81.08" width="5.71" height="5.71"/><rect x="145.95" y="81.08" width="5.71" height="5.71"/><rect x="172.97" y="81.08" width="5.71" height="5.71"/><rect x="21.62" y="86.49" width="5.71" height="5.71"/><rect x="27.03" y="86.49" width="5.71" height="5.71"/><rect x="48.65" y="86.49" width="5.71" height="5.71"/><rect x="54.05" y="86.49" width="5.71" height="5.71"/><rect x="64.86" y="86.49" width="5.71" height="5.71"/><rect x="75.68" y="86.49" width="5.71" height="5.71"/><rect x="81.08" y="86.49" width="5.71" height="5.71"/><rect x="108.11" y="86.49" width="5.71" height="5.71"/><rect x="113.51" y="86.49" width="5.71" height="5.71"/><rect x="156.76" y="86.49" width="5.71" height="5.71"/><rect x="162.16" y="86.49" width="5.71" height="5.71"/><rect x="21.62" y="91.89" width="5.71" height="5.71"/><rect x="37.84" y="91.89" width="5.71" height="5.71"/><rect x="48.65" y="91.89" width="5.71" height="5.71"/><rect x="64.86" y="91.89" width="5.71" height="5.71"/><rect x="91.89" y="91.89" width="5.71" height="5.71"/><rect x="113.51" y="91.89" width="5.71" height="5.71"/><rect x="124.32" y="91.89" width="5.71" height="5.71"/><rect x="140.54" y="91.89" width="5.71" height="5.71"/><rect x="162.16" y="91.89" width="5.71" height="5.71"/><rect x="167.57" y="91.89" width="5.71" height="5.71"/><rect x="172.97" y="91.89" width="5.71" height="5.71"/><rect x="21.62" y="97.30" width="5.71" height="5.71"/><rect x="32.43" y="97.30" width="5.71" height="5.71"/><rect x="37.84" y="97.30" width="5.71" height="5.71"/><rect x="43.24" y="97.30" width="5.71" height="5.71"/><rect x="48.65" y="97.30" width="5.71" height="5.71"/><rect x="54.05" y="97.30" width="5.71" height="5.71"/><rect x="64.86" y="97.30" width="5.71" height="5.71"/><rect x="70.27" y="97.30" width="5.71" height="5.71"/><rect x="75.68" y="97.30" width="5.71" height="5.71"/><rect x="97.30" y="97.30" width="5.71" height="5.71"/><rect x="118.92" y="97.30" width="5.71" height="5.71"/><rect x="124.32" y="97.30" width="5.71" height="5.71"/><rect x="140.54" y="97.30" width="5.71" height="5.71"/><rect x="162.16" y="97.30" width="5.71" height="5.71"/><rect x="167.57" y="97.30" width="5.71" height="5.71"/><rect x="172.97" y="97.30" width="5.71" height="5.71"/><rect x="21.62" y="102.70" width="5.71" height="5.71"/><rect x="37.84" y="102.70" width="5.71" height="5.71"/><rect x="48.65" y="102.70" width="5.71" height="5.71"/><rect x="64.86" y="102.70" width="5.71" height="5.71"/><rect x="86.49" y="102.70" width="5.71" height="5.71"/><rect x="91.89" y="102.70" width="5.71" height="5.71"/><rect x="102.70" y="102.70" width="5.71" height="5.71"/><rect x="145.95" y="102.70" width="5.71" height="5.71"/><rect x="151.35" y="102.70" width="5.71" height="5.71"/><rect x="167.57" y="102.70" width="5.71" height="5.71"/><rect x="21.62" y="108.11" width="5.71" height="5.71"/><rect x="27.03" y="108.11" width="5.71" height="5.71"/><rect x="43.24" y="108.11" width="5.71" height="5.71"/><rect x="48.65" y="108.11" width="5.71" height="5.71"/><rect x="54.05" y="108.11" width="5.71" height="5.71"/><rect x="64.86" y="108.11" width="5.71" height="5.71"/><rect x="75.68" y="108.11" width="5.71" height="5.71"/><rect x="81.08" y="108.11" width="5.71" height="5.71"/><rect x="86.49" y="108.11" width="5.71" height="5.71"/><rect x="118.92" y="108.11" width="5.71" height="5.71"/><rect x="135.14" y="108.11" width="5.71" height="5.71"/><rect x="151.35" y="108.11" width="5.71" height="5.71"/><rect x="156.76" y="108.11" width="5.71" height="5.71"/><rect x="167.57" y="108.11" width="5.71" height="5.71"/><rect x="27.03" y="113.51" width="5.71" height="5.71"/><rect x="32.43" y="113.51" width="5.71" height="5.71"/><rect x="37.84" y="113.51" width="5.71" height="5.71"/><rect x="48.65" y="113.51" width="5.71" height="5.71"/><rect x="64.86" y="113.51" width="5.71" height="5.71"/><rect x="70.27" y="113.51" width="5.71" height="5.71"/><rect x="75.68" y="113.51" width="5.71" height="5.71"/><rect x="86.49" y="113.51" width="5.71" height="5.71"/><rect x="91.89" y="113.51" width="5.71" height="5.71"/><rect x="118.92" y="113.51" width="5.71" height="5.71"/><rect x="129.73" y="113.51" width="5.71" height="5.71"/><rect x="135.14" y="113.51" width="5.71" height="5.71"/><rect x="145.95" y="113.51" width="5.71" height="5.71"/><rect x="156.76" y="113.51" width="5.71" height="5.71"/><rect x="162.16" y="113.51" width="5.71" height="5.71"/><rect x="167.57" y="113.51" width="5.71" height="5.71"/><rect x="21.62" y="118.92" width="5.71" height="5.71"/><rect x="54.05" y="118.92" width="5.71" height="5.71"/><rect x="70.27" y="118.92" width="5.71" height="5.71"/><rect x="75.68" y="118.92" width="5.71" height="5.71"/><rect x="81.08" y="118.92" width="5.71" height="5.71"/><rect x="113.51" y="118.92" width="5.71" height="5.71"/><rect x="145.95" y="118.92" width="5.71" height="5.71"/><rect x="151.35" y="118.92" width="5.71" height="5.71"/><rect x="162.16" y="118.92" width="5.71" height="5.71"/><rect x="32.43" y="124.32" width="5.71" height="5.71"/><rect x="43.24" y="124.32" width="5.71" height="5.71"/><rect x="48.65" y="124.32" width="5.71" height="5.71"/><rect x="64.86" y="124.32" width="5.71" height="5.71"/><rect x="81.08" y="124.32" width="5.71" height="5.71"/><rect x="86.49" y="124.32" width="5.71" height="5.71"/><rect x="102.70" y="124.32" width="5.71" height="5.71"/><rect x="108.11" y="124.32" width="5.71" height="5.71"/><rect x="113.51" y="124.32" width="5.71" height="5.71"/><rect x="124.32" y="124.32" width="5.71" height="5.71"/><rect x="135.14" y="124.32" width="5.71" height="5.71"/><rect x="145.95" y="124.32" width="5.71" height="5.71"/><rect x="162.16" y="124.32" width="5.71" height="5.71"/><rect x="27.03" y="129.73" width="5.71" height="5.71"/><rect x="37.84" y="129.73" width="5.71" height="5.71"/><rect x="43.24" y="129.73" width="5.71" height="5.71"/><rect x="48.65" y="129.73" width="5.71" height="5.71"/><rect x="54.05" y="129.73" width="5.71" height="5.71"/><rect x="75.68" y="129.73" width="5.71" height="5.71"/><rect x="91.89" y="129.73" width="5.71" height="5.71"/><rect x="102.70" y="129.73" width="5.71" height="5.71"/><rect x="129.73" y="129.73" width="5.71" height="5.71"/><rect x="135.14" y="129.73" width="5.71" height="5.71"/><rect x="140.54" y="129.73" width="5.71" height="5.71"/><rect x="145.95" y="129.73" width="5.71" height="5.71"/><rect x="151.35" y="129.73" width="5.71" height="5.71"/><rect x="156.76" y="129.73" width="5.71" height="5.71"/><rect x="162.16" y="129.73" width="5.71" height="5.71"/><rect x="64.86" y="135.14" width="5.71" height="5.71"/><rect x="81.08" y="135.14" width="5.71" height="5.71"/><rect x="91.89" y="135.14" width="5.71" height="5.71"/><rect x="97.30" y="135.14" width="5.71" height="5.71"/><rect x="102.70" y="135.14" width="5.71" height="5.71"/><rect x="113.51" y="135.14" width="5.71" height="5.71"/><rect x="118.92" y="135.14" width="5.71" height="5.71"/><rect x="129.73" y="135.14" width="5.71" height="5.71"/><rect x="151.35" y="135.14" width="5.71" height="5.71"/><rect x="156.76" y="135.14" width="5.71" height="5.71"/><rect x="162.16" y="135.14" width="5.71" height="5.71"/><rect x="167.57" y="135.14" width="5.71" height="5.71"/><rect x="172.97" y="135.14" width="5.71" height="5.71"/><rect x="21.62" y="140.54" width="5.71" height="5.71"/><rect x="27.03" y="140.54" width="5.71" height="5.71"/><rect x="32.43" y="140.54" width="5.71" height="5.71"/><rect x="37.84" y="140.54" width="5.71" height="5.71"/><rect x="43.24" y="140.54" width="5.71" height="5.71"/><rect x="48.65" y="140.54" width="5.71" height="5.71"/><rect x="54.05" y="140.54" width="5.71" height="5.71"/><rect x="64.86" y="140.54" width="5.71" height="5.71"/><rect x="75.68" y="140.54" width="5.71" height="5.71"/><rect x="91.89" y="140.54" width="5.71" height="5.71"/><rect x="108.11" y="140.54" width="5.71" height="5.71"/><rect x="118.92" y="140.54" width="5.71" height="5.71"/><rect x="124.32" y="140.54" width="5.71" height="5.71"/><rect x="129.73" y="140.54" width="5.71" height="5.71"/><rect x="140.54" y="140.54" width="5.71" height="5.71"/><rect x="151.35" y="140.54" width="5.71" height="5.71"/><rect x="156.76" y="140.54" width="5.71" height="5.71"/><rect x="167.57" y="140.54" width="5.71" height="5.71"/><rect x="21.62" y="145.95" width="5.71" height="5.71"/><rect x="54.05" y="145.95" width="5.71" height="5.71"/><rect x="64.86" y="145.95" width="5.71" height="5.71"/><rect x="70.27" y="145.95" width="5.71" height="5.71"/><rect x="86.49" y="145.95" width="5.71" height="5.71"/><rect x="108.11" y="145.95" width="5.71" height="5.71"/><rect x="113.51" y="145.95" width="5.71" height="5.71"/><rect x="124.32" y="145.95" width="5.71" height="5.71"/><rect x="129.73" y="145.95" width="5.71" height="5.71"/><rect x="151.35" y="145.95" width="5.71" height="5.71"/><rect x="156.76" y="145.95" width="5.71" height="5.71"/><rect x="167.57" y="145.95" width="5.71" height="5.71"/><rect x="21.62" y="151.35" width="5.71" height="5.71"/><rect x="32.43" y="151.35" width="5.71" height="5.71"/><rect x="37.84" y="151.35" width="5.71" height="5.71"/><rect x="43.24" y="151.35" width="5.71" height="5.71"/><rect x="54.05" y="151.35" width="5.71" height="5.71"/><rect x="75.68" y="151.35" width="5.71" height="5.71"/><rect x="81.08" y="151.35" width="5.71" height="5.71"/><rect x="97.30" y="151.35" width="5.71" height="5.71"/><rect x="102.70" y="151.35" width="5.71" height="5.71"/><rect x="129.73" y="151.35" width="5.71" height="5.71"/><rect x="135.14" y="151.35" width="5.71" height="5.71"/><rect x="140.54" y="151.35" width="5.71" height="5.71"/><rect x="145.95" y="151.35" width="5.71" height="5.71"/><rect x="151.35" y="151.35" width="5.71" height="5.71"/><rect x="162.16" y="151.35" width="5.71" height="5.71"/><rect x="167.57" y="151.35" width="5.71" height="5.71"/><rect x="172.97" y="151.35" width="5.71" height="5.71"/><rect x="21.62" y="156.76" width="5.71" height="5.71"/><rect x="32.43" y="156.76" width="5.71" height="5.71"/><rect x="37.84" y="156.76" width="5.71" height="5.71"/><rect x="43.24" y="156.76" width="5.71" height="5.71"/><rect x="54.05" y="156.76" width="5.71" height="5.71"/><rect x="64.86" y="156.76" width="5.71" height="5.71"/><rect x="70.27" y="156.76" width="5.71" height="5.71"/><rect x="81.08" y="156.76" width="5.71" height="5.71"/><rect x="97.30" y="156.76" width="5.71" height="5.71"/><rect x="108.11" y="156.76" width="5.71" height="5.71"/><rect x="113.51" y="156.76" width="5.71" height="5.71"/><rect x="124.32" y="156.76" width="5.71" height="5.71"/><rect x="129.73" y="156.76" width="5.71" height="5.71"/><rect x="135.14" y="156.76" width="5.71" height="5.71"/><rect x="145.95" y="156.76" width="5.71" height="5.71"/><rect x="151.35" y="156.76" width="5.71" height="5.71"/><rect x="156.76" y="156.76" width="5.71" height="5.71"/><rect x="167.57" y="156.76" width="5.71" height="5.71"/><rect x="21.62" y="162.16" width="5.71" height="5.71"/><rect x="32.43" y="162.16" width="5.71" height="5.71"/><rect x="37.84" y="162.16" width="5.71" height="5.71"/><rect x="43.24" y="162.16" width="5.71" height="5.71"/><rect x="54.05" y="162.16" width="5.71" height="5.71"/><rect x="64.86" y="162.16" width="5.71" height="5.71"/><rect x="70.27" y="162.16" width="5.71" height="5.71"/><rect x="86.49" y="162.16" width="5.71" height="5.71"/><rect x="97.30" y="162.16" width="5.71" height="5.71"/><rect x="102.70" y="162.16" width="5.71" height="5.71"/><rect x="108.11" y="162.16" width="5.71" height="5.71"/><rect x="145.95" y="162.16" width="5.71" height="5.71"/><rect x="162.16" y="162.16" width="5.71" height="5.71"/><rect x="172.97" y="162.16" width="5.71" height="5.71"/><rect x="21.62" y="167.57" width="5.71" height="5.71"/><rect x="54.05" y="167.57" width="5.71" height="5.71"/><rect x="70.27" y="167.57" width="5.71" height="5.71"/><rect x="81.08" y="167.57" width="5.71" height="5.71"/><rect x="91.89" y="167.57" width="5.71" height="5.71"/><rect x="108.11" y="167.57" width="5.71" height="5.71"/><rect x="129.73" y="167.57" width="5.71" height="5.71"/><rect x="151.35" y="167.57" width="5.71" height="5.71"/><rect x="156.76" y="167.57" width="5.71" height="5.71"/><rect x="167.57" y="167.57" width="5.71" height="5.71"/><rect x="21.62" y="172.97" width="5.71" height="5.71"/><rect x="27.03" y="172.97" width="5.71" height="5.71"/><rect x="32.43" y="172.97" width="5.71" height="5.71"/><rect x="37.84" y="172.97" width="5.71" height="5.71"/><rect x="43.24" y="172.97" width="5.71" height="5.71"/><rect x="48.65" y="172.97" width="5.71" height="5.71"/><rect x="54.05" y="172.97" width="5.71" height="5.71"/><rect x="64.86" y="172.97" width="5.71" height="5.71"/><rect x="75.68" y="172.97" width="5.71" height="5.71"/><rect x="91.89" y="172.97" width="5.71" height="5.71"/><rect x="97.30" y="172.97" width="5.71" height="5.71"/><rect x="102.70" y="172.97" width="5.71" height="5.71"/><rect x="108.11" y="172.97" width="5.71" height="5.71"/><rect x="113.51" y="172.97" width="5.71" height="5.71"/><rect x="124.32" y="172.97" width="5.71" height="5.71"/><rect x="129.73" y="172.97" width="5.71" height="5.71"/><rect x="145.95" y="172.97" width="5.71" height="5.71"/><rect x="156.76" y="172.97" width="5.71" height="5.71"/><rect x="167.57" y="172.97" width="5.71" height="5.71"/></g>
  </g>

  <!-- Label sous le QR -->
  <text x="912" y="572" font-size="20" font-weight="600" letter-spacing="2" fill="#E8EEF5" text-anchor="middle">patenaude.pages.dev</text>
  <text x="912" y="596" font-size="12" font-weight="500" letter-spacing="3.5" fill="#8E9BB0" text-anchor="middle">SCAN POUR LE PORTFOLIO</text>

</svg>
